<?xml version="1.0" encoding="utf-8"?>
<!-- Generator: Adobe Illustrator 19.0.0, SVG Export Plug-In . SVG Version: 6.00 Build 0)  -->
<svg version="1.1" id="Capa_1" xmlns="http://www.w3.org/2000/svg" xmlns:xlink="http://www.w3.org/1999/xlink" x="0px" y="0px"
	 viewBox="0 0 560 560" style="enable-background:new 0 0 560 560;" xml:space="preserve">
<style type="text/css">
	.st0{fill:#0000CE;}
	.st1{fill:#FFFFFF;}
	.st2{fill:#E57D00;}
	.st3{fill:#20BC00;}
</style>
<g id="XMLID_100_">
	<g id="XMLID_98_">
		<path id="XMLID_58_" class="st0" d="M174.5,489c-0.4-0.4-0.8-0.7-1.3-1c-0.5-0.2-1-0.4-1.6-0.4s-1.1,0.1-1.6,0.4s-0.9,0.6-1.3,1
			c-0.4,0.4-0.7,0.9-0.9,1.5c-0.2,0.5-0.3,1.1-0.3,1.7c0,0.6,0.1,1.2,0.3,1.7c0.2,0.5,0.5,1,0.9,1.5c0.4,0.4,0.8,0.7,1.3,1
			c0.5,0.2,1,0.3,1.6,0.3s1.1-0.1,1.6-0.3c0.5-0.2,0.9-0.5,1.3-1c0.4-0.4,0.7-0.9,0.9-1.5c0.2-0.5,0.4-1.1,0.4-1.7
			c0-0.6-0.1-1.2-0.4-1.7C175.2,489.8,174.9,489.4,174.5,489z"/>
		<path id="XMLID_59_" class="st0" d="M159.4,479.7c-0.3-0.4-0.7-0.9-1.2-1.2c-0.5-0.3-1.2-0.6-2-0.6h-3.3v8.7h3.3
			c0.8,0,1.5-0.1,2-0.4s1-0.6,1.3-1.1c0.3-0.4,0.5-0.9,0.7-1.4s0.2-0.9,0.2-1.4c0-0.4,0-0.8-0.2-1.3
			C159.9,480.6,159.7,480.1,159.4,479.7z"/>
		<path id="XMLID_60_" class="st0" d="M123.4,489.8c0.5-0.2,1.1-0.4,1.5-0.6c-0.3-0.5-0.6-0.9-1.2-1.1c-0.5-0.2-1-0.4-1.5-0.4
			c-0.6,0-1.1,0.1-1.6,0.4c-0.5,0.2-0.9,0.6-1.3,1c-0.4,0.4-0.7,0.9-0.9,1.4c-0.2,0.5-0.4,1.1-0.4,1.6v0.1c0.4-0.2,1.2-0.5,1.8-0.7
			c0.6-0.3,1.2-0.5,1.9-0.8C122.2,490.3,122.8,490,123.4,489.8z"/>
		<path id="XMLID_61_" class="st0" d="M89.1,444.4c-2.7,0-4.9,2.4-4.9,5.2c0,0.8,0.2,1.5,0.4,2.2c0.4,0,0.8-0.1,1.2-0.1
			c1.2,0,2.4,0.3,3.4,1c0.9-2.1,2.5-3.8,4.4-4.8C93,445.9,91.2,444.4,89.1,444.4z"/>
		<path id="XMLID_62_" class="st0" d="M105.7,487.6c-0.6,0-1.2,0.1-1.7,0.3c-0.5,0.2-0.9,0.5-1.3,0.9c-0.4,0.4-0.7,0.9-0.9,1.5
			c-0.2,0.5-0.3,1.1-0.3,1.7s0.1,1.3,0.3,1.8c0.2,0.6,0.5,1,0.9,1.5c0.4,0.4,0.8,0.7,1.3,1s1.1,0.3,1.7,0.3c0.6,0,1.2-0.1,1.6-0.3
			c0.5-0.2,0.9-0.6,1.2-1c0.3-0.4,0.6-0.9,0.8-1.5c0.2-0.5,0.3-1.1,0.3-1.7c0-1.3-0.4-2.4-1-3.2C107.8,488,106.9,487.6,105.7,487.6z
			"/>
		<path id="XMLID_63_" class="st0" d="M94.2,446.8c0.2,0.2,0.4,0.3,0.7,0.4c0.6-0.2,1.2-0.4,1.8-0.4c-0.1-0.6-0.1-1.2-0.1-1.7
			c0-2.6,0.9-5,2.4-6.8c-0.6-0.3-1.3-0.5-2.1-0.5c-2.5,0-4.6,2.3-4.6,5c0,0.4,0,0.9,0.2,1.3C93.2,444.8,93.8,445.8,94.2,446.8z"/>
		<path id="XMLID_65_" class="st0" d="M209.7,489.8c0.5-0.2,1.1-0.4,1.5-0.6c-0.3-0.5-0.6-0.9-1.2-1.1c-0.5-0.2-1-0.4-1.5-0.4
			c-0.6,0-1.1,0.1-1.6,0.4c-0.5,0.2-0.9,0.6-1.3,1c-0.4,0.4-0.7,0.9-0.9,1.4c-0.2,0.5-0.3,1.1-0.3,1.6v0.1c0.4-0.2,1.1-0.5,1.7-0.7
			c0.6-0.3,1.2-0.5,1.8-0.8C208.6,490.3,209.2,490,209.7,489.8z"/>
		<path id="XMLID_66_" class="st0" d="M203.6,444.1c0.1-0.4,0.2-0.9,0.2-1.3c0-2.8-2.1-5-4.6-5c-0.8,0-1.5,0.2-2.1,0.5
			c1.5,1.8,2.4,4.2,2.4,6.8c0,0.6,0,1.2-0.1,1.7c0.6,0.1,1.2,0.2,1.8,0.4c0.3-0.1,0.5-0.3,0.7-0.4
			C202.2,445.8,202.8,444.8,203.6,444.1z"/>
		<path id="XMLID_67_" class="st0" d="M206.8,444.4c-2.1,0-3.8,1.5-4.5,3.4c1.9,1,3.4,2.8,4.4,4.8c1-0.6,2.2-1,3.4-1
			c0.4,0,0.8,0,1.2,0.1c0.3-0.7,0.4-1.4,0.4-2.2C211.6,446.8,209.5,444.4,206.8,444.4z"/>
		<path id="XMLID_70_" class="st0" d="M239,362.1H54c-10.5,0-18.9,9.2-18.9,20.6v104.2c0,11.4,8.5,20.6,18.9,20.6H239
			c10.5,0,18.9-9.2,18.9-20.6V382.7C257.9,371.3,249.4,362.1,239,362.1z M177,393.9c0.6,6.7-1.2,11.1-3.6,13.8
			c-0.1,1.2-0.3,2.3-0.4,3.1c1.2-0.6,2.3-1.4,3-2.1c1.1-1.1,1.7-2.1,1.7-2.1l0,0l2.6-4.1v4.9c0,4.3-1,8.7-2.2,12.8
			c-1.2,1.3-2.5,2.5-4.1,3.7c1.4-3.8,2.8-8.4,3.3-12.7c-1.4,1.2-3.3,2.4-5.8,3l-2,0.4l0.4-2.2c0,0,0-0.1,0-0.2
			c0-0.2,0.1-0.4,0.1-0.8c0.1-0.4,0.1-0.9,0.2-1.4c-2.6,1.5-5.3,1.6-6,0.7c1.1-0.6,2.1-1.3,3-1.9c5.5-4,7.8-9.1,8.8-12.2
			C176.9,395.1,177,393.9,177,393.9z M160.9,462.8c0.4,1.9-0.7,3.8-2.4,4.3c-1.7,0.4-3.5-0.7-3.9-2.6l-3.1-14
			c-2.3,0.7-4.1,0.6-4.6,0c0.7-0.4,1.4-0.8,2-1.2c9-5.4,12.9-12.6,14.3-16.2c0.6-1.4,0.8-2.3,0.8-2.3c-0.4,7.9-3.3,13-6.6,16.1
			L160.9,462.8z M161.5,427.4c-0.4,0.5-0.9,0.7-1.6,0.7c0,0,0,0-0.1,0c-0.6,0-1.2-0.3-1.6-0.9l-3.3-4.5v13.5c0,0,0,0.1,0,0.2
			l1.2,5.1c-1.6,1.6-3.4,3.3-5.6,4.8l-1.7-7.7h-1.7l-4,17.9c-2.3-0.9-4.2-2.1-6-3.2l3.6-16.9c0,0-0.1-0.1-0.1-0.2v-8
			c-0.4-0.6-1.6-1.3-2.3-2.1l-0.8,1.2c-0.4,0.5-0.9,0.8-1.6,0.9c0,0,0,0-0.1,0c-0.6,0-1.1-0.2-1.5-0.7l-6.4-7.5
			c-0.8-0.9-0.7-2.4,0.1-3.2c0.8-0.9,2.2-0.8,3,0.1l4.3,5c-1.3-2.5-2.3-5.5-2.8-9.3c0,0,0.3,0.8,0.9,2.2c1.7,3.4,6.1,10.3,15.5,14.8
			c1.2,0,2-0.3,2.4-0.7c-6.2-2.6-10.6-6.2-13.4-9.5l2.8-3.8l0,0c0.4-0.5,0.9-0.8,1.4-0.9c1.1,2.2,3.2,3.8,5.7,3.8s4.6-1.6,5.7-3.8
			c0.5,0,1.1,0.3,1.4,0.9l0.8,1.2c-1.1,1.7-2.6,3.4-4.7,5.1c0.2,0.2,0.8,0.2,1.4,0c4.6-4.2,6.1-8.8,6.6-11.1
			c0.2-0.9,0.2-1.4,0.2-1.4c0.6,4.3-0.4,7.5-1.9,9.7l2.4,3.3l4.7-5.5c0.8-0.9,2.1-1,3-0.1c0.8,0.9,0.9,2.3,0.1,3.2L161.5,427.4z
			 M135.7,393.8c0,0,0.2,0.5,0.8,1.2c1.3,1.8,4.5,5.3,10.3,7c0.4,0.1,0.8,0.2,1.3,0.3C147.4,403.8,138.6,404.1,135.7,393.8z
			 M153.9,411.4c0,3.5-2.6,6.4-5.9,6.4c-3.3,0-5.9-2.9-5.9-6.4c0-3.5,2.6-6.4,5.9-6.4C151.3,404.9,153.9,407.8,153.9,411.4z
			 M167.4,381.2c0.7,5.8-0.6,10-2.5,13c0.2,1.3,0.4,2.5,0.5,3.5c0.8-0.9,1.4-2.1,2-3.3c1.1-2.1,1.8-4.2,2-5c0.1-0.2,0.1-0.3,0.1-0.3
			l1-3.3l1.4,3.1c1.4,3,1.9,6.7,2,10.3c-0.7,1.2-1.6,2.5-2.7,3.7c0-0.9,0.1-1.7,0.1-2.7c0-2.3-0.2-4.6-0.6-6.7
			c-0.2,0.4-0.4,0.8-0.5,1.2c-1.2,2.6-2.9,5.5-5.3,7.1L163,403l0-2.4c0,0,0-0.1,0-0.5c0-0.3,0-0.8-0.1-1.4c0-0.6-0.1-1.3-0.2-2
			c-2.6,2.4-5.3,3.1-6.1,2.5c0.5-0.4,1-0.8,1.5-1.2c6.4-5.7,8.5-12,9.1-15C167.3,381.9,167.4,381.2,167.4,381.2z M154.4,372.1
			c0.3,1.7,0.3,3.3,0.1,4.7c2,1.5,4,3.2,5.4,5c1.7,2.2,2.9,4.8,3.7,7.4c-0.5,1-1.2,1.9-1.9,3c-0.8-3-2-6.2-3.8-8.5
			c-1.1-1.4-2.6-2.7-4.2-4c-1.8,4.8-6.1,6.6-7,6c0.4-0.3,0.7-0.6,1-1c4.5-4.3,5.9-9,6.3-11.2C154.4,372.6,154.4,372.1,154.4,372.1z
			 M141.1,369.1c0,0,3.3,1.4,7.2,3.7c1.5,0.9,3,1.8,4.6,2.9c-0.3,0.8-0.7,1.6-1.2,2.6c-1.1-0.7-2.1-1.5-3.2-2.1
			c-1.7-1.1-3.4-1.9-4.8-2.7c0.4,1.1,0.7,2.2,0.7,3.2c0,1.8-0.8,3.4-2.1,4.6c-0.8,0.8-1.9,1.4-3.1,2c-0.5-0.9-0.9-1.7-1.3-2.5
			c1.2-0.6,2.1-1.2,2.7-1.7c0.9-0.9,1.2-1.5,1.2-2.4c0-1.2-0.7-3.1-2.3-5.5l-2.5-3.9L141.1,369.1z M124,388.9l1.4-3.1l1,3.3
			c0,0,0,0.1,0.1,0.3c0.1,0.2,0.2,0.6,0.3,1c0.3,0.8,0.7,1.9,1.3,3.1c0.5,1.1,1.1,2.2,1.7,3.1c0-0.7-0.1-1.6-0.1-2.4
			c0-2.3,0.2-4.8,1.1-7.1c0.8-2.2,2.3-4.2,4.5-5.2c-0.4-2.1-0.5-4.6-0.1-7.4c0,0,0,0.7,0.3,1.9c0.6,3.1,2.6,9.4,8.9,15.2
			c0.4,0.4,0.9,0.8,1.4,1.3c-1.2,1-7.2-1.5-9.7-8.2c-1.4,0.7-2.3,1.9-2.9,3.5c-0.7,1.8-0.9,4-0.9,6.1c0,2.9,0.4,5.4,0.6,5.9
			c0,0.1,0,0.1,0,0.1l0.7,3.2l-2.6-1.6c-2.4-1.6-4.1-4.5-5.3-7.1c-0.2-0.4-0.4-0.8-0.5-1.2c-0.4,1.7-0.5,3.5-0.6,5.4
			c-1-1.2-1.7-2.4-2.4-3.4C122.6,393.2,123.1,390.9,124,388.9z M115.7,402.6l2.4,4.2l0,0l0,0c0,0,0,0,0.1,0.1c0,0.1,0.2,0.2,0.3,0.4
			c0.3,0.4,0.7,0.9,1.2,1.4c0.8,0.7,1.8,1.6,3.1,2.1c-0.3-1.8-0.7-4.5-0.8-7.5c-2-2.8-3.3-6.9-2.8-12.8c0,0,0.1,1.1,0.7,2.9
			c1,3.1,3.3,8.1,8.8,12.2c0.9,0.7,1.9,1.3,3,1.9c-0.8,0.9-3.9,0.8-6.9-1.3c0.3,3.1,0.8,5.4,0.9,6.2c0,0.2,0,0.2,0,0.2l0.4,2.2
			l-2-0.4c-2.5-0.5-4.4-1.8-5.8-3c0.5,3.9,1.6,7.9,2.9,11.5c0.4,1.1,0.8,2.2,1.2,3.2c-1.7-1.3-3.1-2.6-4.3-3.9
			c-1.5-4.6-2.8-9.7-2.8-14.6v-4.9H115.7z M78.3,495.4c-0.4,0.9-0.9,1.7-1.7,2.3c-0.8,0.6-1.7,1.2-2.9,1.5s-2.5,0.5-4,0.5
			c-0.9,0-1.8,0-2.6-0.2c-0.8-0.1-1.5-0.3-2-0.5c-0.6-0.2-1.2-0.4-1.6-0.7c-0.5-0.2-0.9-0.5-1.2-0.7l1.7-3.7c0.9,0.5,1.9,1,2.9,1.3
			c1,0.3,1.9,0.4,2.7,0.4c0.4,0,0.9,0,1.5-0.1c0.6-0.1,1.2-0.3,1.8-0.5s1.1-0.6,1.5-1.1c0.4-0.4,0.6-1,0.6-1.7c0-0.8-0.3-1.5-0.8-2
			c-0.6-0.5-1.3-1-2.1-1.4c-0.8-0.4-1.8-0.8-2.8-1.2c-1-0.4-1.9-0.9-2.8-1.4s-1.6-1.2-2.1-2c-0.6-0.8-0.8-1.8-0.8-3.1
			c0-0.9,0.2-1.7,0.5-2.6c0.3-0.9,0.8-1.6,1.5-2.3s1.5-1.2,2.5-1.6c1-0.4,2.1-0.6,3.4-0.6c0.8,0,1.6,0.1,2.4,0.2
			c0.8,0.1,1.5,0.3,2.1,0.5c0.6,0.2,1.1,0.4,1.6,0.5c0.4,0.2,0.7,0.3,0.8,0.3l-1.4,3.5c-0.9-0.3-1.8-0.6-2.7-0.8s-1.7-0.3-2.5-0.3
			c-1.3,0-2.3,0.3-3.1,0.8c-0.8,0.6-1.2,1.3-1.2,2.1c0,0.7,0.3,1.4,0.8,1.8c0.6,0.5,1.3,0.9,2.1,1.3c0.8,0.4,1.8,0.7,2.8,1.1
			s1.9,0.9,2.8,1.5c0.8,0.6,1.6,1.4,2.1,2.3c0.6,0.9,0.8,2.1,0.8,3.5C78.8,493.5,78.6,494.5,78.3,495.4z M84.1,505h3.1H84.1z
			 M94.3,499.7H92l-0.4-4c-0.5,1.2-1.2,2.2-2,3c-0.8,0.8-2,1.2-3.4,1.2c-1.4,0-2.5-0.4-3.4-1.2c-0.8-0.8-1.3-1.8-1.3-3.2v-10.8h3.1
			v9.3c0,0.7,0.3,1.3,0.7,1.8c0.4,0.5,1.1,0.8,2,0.8c0.6,0,1.2-0.1,1.7-0.3c0.5-0.2,1-0.6,1.3-1c0.4-0.4,0.8-0.9,1-1.5
			c0.2-0.6,0.4-1.2,0.4-1.9v-7.2h2.7L94.3,499.7L94.3,499.7z M93.2,466.1c-2.9-1.8-4.8-5.1-4.8-9c0-1.3,0.2-2.6,0.6-3.7
			c-0.3,0-0.5,0-0.8,0c-3.8,0-7,3.4-7,7.6c0,2.7,1.3,5.1,3.3,6.4c-3.3-0.7-5.9-3.9-5.9-7.7c0-3.2,1.8-6.1,4.4-7.2
			c-0.5-1-0.8-2.1-0.8-3.2c0-3.6,2.7-6.6,6.1-6.6c0.7,0,1.3,0.1,1.9,0.3c0-0.2,0-0.4,0-0.6c0-3.5,2.6-6.3,5.8-6.3
			c1.4,0,2.7,0.5,3.7,1.4c1-1,2.3-1.7,3.6-2.1c0-0.3,0-0.7,0-1.1c0-4.3,2.3-7.9,5.6-9.6l-0.5-2.4l1.8,1.8c0.9-0.3,1.9-0.5,2.9-0.5
			c0.8,0,1.6,0.1,2.3,0.3c-1.2-2.3-2.1-5.2-2.5-8.9c0,0,0.2,0.7,0.8,1.9c1.4,3.1,5,9.2,13.1,13.5c0.6,0.3,1.2,0.6,1.8,0.9
			c-0.4,0.5-1.7,0.7-3.5,0.4c0.3,0.6,0.5,1,0.7,1.4c0.2,0.4,0.3,0.6,0.3,0.6l1.5,2.7l-2.8-0.6h0c-0.1,0-6-1.2-11.5-5.2
			c2.2,6.1,5.8,11.1,8.4,14.1c0.1,0.1,0.2,0.3,0.4,0.4c-2.5-1.3-4.7-2.7-6.5-4.2c-2.3-3.5-4.5-8-5.8-13c-1,0.7-1.8,1.6-2.5,2.7
			c-0.1-0.1-0.1-0.2-0.1-0.2c0,0.1,0,0.2,0,0.3c-0.8,1.3-1.4,2.7-1.6,4.2c0.2,0,0.4,0,0.5,0c0.5,0,1.1,0,1.6,0.1
			c-0.3-0.9-0.5-1.9-0.7-3c0,0,4.1,10.5,17.6,15.9c0.1,0,0.2,0,0.2,0l0.2,0.2c0.6,0.2,1.2,0.4,1.7,0.6c-0.3,0.4-1,0.8-2,0.9
			c-0.1,0.2-0.6,0.9-1.5,1.6c-0.9,0.8-2.5,1.6-4.3,1.6c-0.5,0-1,0-1.5-0.1c0.5,1.2,1.2,2.3,1.9,3.3c-1.6-0.6-3-1.3-4.2-2.1
			c-0.2-0.4-0.4-0.9-0.5-1.4c-0.2-0.6-0.4-1.2-0.5-1.8l-0.8-3.1l2.6,1.5c0.1,0,0.1,0.1,0.2,0.1c1.1,0.6,2,0.8,2.9,0.8
			c0.9,0,1.6-0.3,2.2-0.6c-1.5-0.3-3.1-1-4.8-2c-2.9-1.8-5.7-4.7-7.6-9.3c-0.2,0-0.4,0-0.5,0c-4.5,0-8.2,4-8.2,8.9c0,0,0,0.1,0,0.1
			c1.3,0.3,2.5,0.9,3.5,1.7c-0.8-0.2-1.7-0.4-2.6-0.4c-5.3,0-9.5,4.7-9.5,10.4c0,3.4,1.5,6.4,3.9,8.3
			C94.5,466.8,93.9,466.5,93.2,466.1z M114.1,439.7c-1.3-1.2-2.5-2.4-3.3-3.5C112.2,437,113.3,438.2,114.1,439.7z M112.4,495.3
			c-0.4,0.9-0.8,1.7-1.5,2.5c-0.6,0.7-1.4,1.3-2.3,1.6c-0.9,0.4-1.8,0.6-2.9,0.6s-2-0.2-2.8-0.6c-0.8-0.4-1.3-0.9-1.6-1.4
			c0,0.1,0,0.2,0,0.2c0,0.1,0,0.2,0,0.3v8h-3.1v-21.8h2.9c0,0.5,0,0.7,0,1c0,0.3,0,0.6,0,0.9c0.2-0.2,0.4-0.5,0.7-0.7
			c0.3-0.3,0.6-0.5,1-0.7c0.4-0.2,0.8-0.4,1.3-0.5c0.5-0.1,1-0.2,1.6-0.2c1.1,0,2,0.2,2.9,0.5c0.8,0.3,1.6,0.9,2.2,1.6
			c0.6,0.7,1.1,1.5,1.4,2.5c0.4,1,0.5,2,0.5,3.2C112.9,493.3,112.8,494.3,112.4,495.3z M120.1,496c0.6,0.4,1.4,0.7,2.2,0.7
			c0.5,0,1.1-0.1,1.7-0.3s1-0.5,1.4-0.9l2.3,2.4c-0.7,0.6-1.5,1.2-2.4,1.6c-0.9,0.4-1.9,0.6-2.9,0.6c-1,0-2-0.2-2.9-0.6
			c-0.9-0.4-1.6-1-2.3-1.7c-0.7-0.7-1.2-1.6-1.6-2.5c-0.4-0.9-0.6-1.9-0.6-3c0-1.1,0.2-2.1,0.6-3c0.4-0.9,0.9-1.7,1.6-2.5
			c0.7-0.7,1.4-1.3,2.3-1.7c0.8-0.4,1.8-0.6,2.8-0.6c1.6,0,2.9,0.5,4.1,1.5c1.2,1,2,2.3,2.5,4c-0.6,0.2-1.4,0.6-2.2,0.9
			c-0.8,0.3-1.7,0.7-2.6,1.1c-0.9,0.4-1.8,0.8-2.8,1.2c-0.9,0.4-1.8,0.8-2.5,1.1C118.9,495,119.4,495.5,120.1,496z M125.9,461.7
			c0.9,0.5,1.6,0.8,1.9,0.9c0,0,0.1,0,0.1,0l1.2,0.4l-0.8,2.7l-1.2-0.4c-0.1,0-2.6-1-5.5-3.2c-0.3-0.2-0.5-0.4-0.8-0.6
			c-3.2-0.7-6.7-2.5-9.8-6.3c-1.5-1.8-2.9-4.1-4-6.9c0,0,6.1,9.2,20.2,11.3c0.8,0.1,1.5,0.2,2.3,0.3
			C129.2,460.7,127.9,461.4,125.9,461.7z M138.7,488.7c-0.6,0-1.2,0.1-1.7,0.2c-0.5,0.1-1,0.4-1.4,0.7c-0.4,0.3-0.8,0.8-1.1,1.3
			c-0.3,0.5-0.4,1.1-0.4,1.7v7.1h-3.1v-15h2.9c0,1,0.1,1.6,0.1,2c0,0.5,0.1,1.1,0.1,1.8c0.3-0.6,0.7-1.2,1.1-1.7
			c0.5-0.5,0.9-1,1.5-1.3c0.5-0.3,1-0.6,1.5-0.8c0.5-0.2,0.9-0.3,1.2-0.3L138.7,488.7z M142.2,460.9l-0.8,3.5
			c-0.4,1.9-2.2,3.1-3.9,2.6c-1.7-0.4-2.8-2.4-2.4-4.3l1-4.6c-3.4-2.4-6.6-6.5-8.2-13c0,0,0.4,0.8,1.2,2c2.2,3.1,7.4,9.2,17.3,12.2
			c0.7,0.2,1.5,0.4,2.2,0.6C148.1,460.9,145.5,461.6,142.2,460.9z M163.7,485.4c-0.3,1-0.7,1.9-1.4,2.7c-0.6,0.8-1.5,1.6-2.5,2
			c-1,0.5-2.2,0.9-3.7,0.9h-3.4v8.7h-3.6V474h6.4c1.3,0,2.5,0.2,3.5,0.6c1.1,0.4,2,0.9,2.7,1.6c0.8,0.7,1.3,1.6,1.7,2.6
			c0.4,1,0.6,2.2,0.6,3.4C164.1,483.3,164,484.4,163.7,485.4z M178.3,495.2c-0.4,1-0.8,1.8-1.5,2.5c-0.6,0.7-1.4,1.3-2.3,1.7
			c-0.9,0.4-1.8,0.6-2.9,0.6c-1,0-2-0.2-2.8-0.6c-0.9-0.4-1.6-0.9-2.3-1.6c-0.7-0.7-1.2-1.5-1.6-2.5c-0.4-1-0.6-2-0.6-3.2
			c0-1.1,0.2-2.1,0.6-3c0.4-0.9,0.9-1.7,1.6-2.5c0.7-0.7,1.4-1.3,2.3-1.6c0.9-0.4,1.8-0.6,2.9-0.6s2,0.2,2.9,0.6
			c0.9,0.4,1.6,1,2.3,1.6s1.1,1.5,1.5,2.5c0.4,0.9,0.5,1.9,0.5,3C178.8,493.2,178.7,494.2,178.3,495.2z M194.1,500.4
			c-0.4-0.9-0.8-1.7-1.1-2.6c-0.3-0.9-0.6-1.7-1-2.5c-0.3-0.8-0.7-1.7-1-2.5c-0.3-0.9-0.7-1.7-1.1-2.6c-0.7,1.7-1.4,3.5-2,5.1
			c-0.7,1.6-1.3,3.3-2,5.1l-6.1-15.7h3.1c0.6,1.5,1.1,2.8,1.4,3.7c0.4,0.9,0.7,1.7,0.8,2.4c0.2,0.6,0.4,1.2,0.5,1.7
			c0.1,0.5,0.2,1.1,0.3,1.7c0-0.2,0.1-0.4,0.2-0.7c0.1-0.3,0.2-0.7,0.4-1.2c0.2-0.5,0.4-1.2,0.8-2c0.4-0.9,0.8-2,1.3-3.3l-0.9-2.2
			h2.7c0.6,1.5,1.2,2.8,1.6,3.9c0.4,1.1,0.8,2,1.1,2.7c0.3,0.7,0.5,1.3,0.7,1.8c0.2,0.4,0.3,0.8,0.4,1.1c0.1-0.6,0.2-1.2,0.4-1.7
			c0.1-0.5,0.4-1.1,0.6-1.7c0.2-0.6,0.6-1.5,1-2.4c0.4-0.9,0.9-2.2,1.5-3.6h3.1L194.1,500.4z M206.4,496c0.6,0.4,1.4,0.7,2.2,0.7
			c0.5,0,1.1-0.1,1.7-0.3c0.6-0.2,1-0.5,1.4-0.9l2.3,2.4c-0.7,0.6-1.5,1.2-2.4,1.6c-0.9,0.4-1.9,0.6-2.9,0.6c-1,0-2-0.2-2.9-0.6
			c-0.9-0.4-1.6-1-2.3-1.7c-0.7-0.7-1.2-1.6-1.6-2.5c-0.4-0.9-0.6-1.9-0.6-3c0-1.1,0.2-2.1,0.6-3c0.4-0.9,0.9-1.7,1.6-2.5
			s1.4-1.3,2.3-1.7c0.8-0.4,1.8-0.6,2.8-0.6c1.6,0,2.9,0.5,4.1,1.5c1.2,1,2,2.3,2.5,4c-0.6,0.2-1.4,0.6-2.2,0.9s-1.7,0.7-2.6,1.1
			c-0.9,0.4-1.8,0.8-2.8,1.2c-0.9,0.4-1.8,0.8-2.5,1.1C205.3,495,205.8,495.5,206.4,496z M211.4,467.3c2-1.3,3.3-3.7,3.3-6.4
			c0-4.2-3.1-7.6-7-7.6c-0.3,0-0.5,0-0.8,0c0.4,1.2,0.6,2.4,0.6,3.7c0,3.9-2,7.2-4.8,9c-0.6,0.4-1.3,0.7-2,0.9
			c2.4-1.9,3.9-4.9,3.9-8.3c0-5.7-4.3-10.4-9.5-10.4c-0.9,0-1.7,0.1-2.6,0.4c1-0.8,2.2-1.4,3.5-1.7c0,0,0-0.1,0-0.1
			c0-4.9-3.7-8.9-8.2-8.9c-0.5,0-1,0-1.6,0.1c-2,4.3-4.6,7.1-7.3,9c-1.4,1-2.9,1.6-4.3,2.1c0.6,0.4,1.4,0.7,2.4,0.7
			c0.8,0,1.7-0.2,2.9-0.8c0.1,0,0.1-0.1,0.2-0.1l2.6-1.5l-0.8,3.1c-0.1,0.6-0.4,1.2-0.5,1.8c-1.6,4.5-4.4,7.6-7,9.6
			c-2.9,2.3-5.4,3.2-5.5,3.2l-1.2,0.4l-0.8-2.7l1.2-0.4c0,0,0,0,0.1,0c0,0,0.1,0,0.3-0.1c0.3-0.1,0.6-0.3,1.1-0.5
			c0.9-0.5,2.1-1.2,3.4-2.2c2-1.6,4.2-3.9,5.6-7.1c-0.5,0.1-1,0.1-1.5,0.1c-1.9,0-3.4-0.8-4.3-1.6c-0.6-0.5-1.1-1-1.3-1.3
			c-3.5,0.3-6.3-0.6-6.7-1.7c0.8-0.1,1.6-0.2,2.3-0.3c10.2-1.7,16.1-7.2,18.7-10c0.4-0.8,0.8-1.6,1.2-2.6c0.9-0.3,1.9-0.5,2.9-0.5
			c0.2,0,0.4,0,0.5,0c-0.5-2.9-2-5.4-4.2-6.9c-1.2,5.1-3.6,9.5-5.8,13.1c-1.6,1.1-3.4,2.1-5.5,3c0.6-0.7,1.2-1.5,1.8-2.4
			c2.1-2.9,4.4-6.7,6-11.1c-5.5,4-11.4,5.2-11.5,5.2h0l-2.8,0.6l1.5-2.7c0,0,0.1-0.2,0.3-0.6c0.2-0.4,0.5-1,0.9-1.8v0
			c-2.9,0.9-5.2,0.6-5.7-0.2c0.8-0.3,1.5-0.6,2.1-1c9.4-4.5,13.9-11.4,15.7-14.8c0.7-1.4,1-2.2,1-2.2c-0.6,4.6-2,8.1-3.7,10.9
			c0.8-0.2,1.6-0.3,2.4-0.3c1,0,2,0.2,2.9,0.5l1.8-1.8l-0.5,2.4c3.3,1.7,5.6,5.4,5.6,9.6c0,0.4,0,0.7,0,1.1c1.3,0.4,2.6,1.2,3.6,2.1
			c1-0.9,2.3-1.4,3.7-1.4c3.2,0,5.8,2.9,5.8,6.3c0,0.2,0,0.4,0,0.6c0.6-0.2,1.2-0.3,1.9-0.3c3.3,0,6.1,3,6.1,6.6
			c0,1.2-0.3,2.3-0.8,3.2c2.6,1.2,4.4,4,4.4,7.2C217.3,463.4,214.7,466.6,211.4,467.3z M181.6,440.1c1.1-2.1,2.8-3.7,4.9-4.6
			C185.6,436.6,184,438.3,181.6,440.1z M225.1,488.7c-0.6,0-1.2,0.1-1.7,0.2c-0.5,0.1-1,0.4-1.4,0.7c-0.4,0.3-0.8,0.8-1,1.3
			c-0.3,0.5-0.4,1.1-0.4,1.7v7.1h-3.1v-15h2.8c0,1,0.1,1.6,0.1,2c0,0.5,0.1,1.1,0.1,1.8c0.3-0.6,0.7-1.2,1.1-1.7
			c0.5-0.5,0.9-1,1.5-1.3c0.5-0.3,1-0.6,1.5-0.8c0.5-0.2,0.9-0.3,1.2-0.3L225.1,488.7z M235.8,497.1c-0.2,0.6-0.5,1-1,1.5
			c-0.4,0.4-0.9,0.7-1.5,0.9c-0.6,0.2-1.2,0.3-2,0.3c-0.9,0-1.7-0.1-2.5-0.5c-0.8-0.3-1.5-0.8-2-1.4c0.1-0.2,0.3-0.4,0.5-0.7
			c0.2-0.3,0.4-0.5,0.6-0.8c0.2-0.2,0.4-0.6,0.7-0.9c0,0,0.1,0,0.2,0.1c0.1,0.1,0.3,0.2,0.6,0.4c0.2,0.1,0.5,0.3,0.8,0.4
			s0.7,0.2,1,0.2c0.5,0,0.9-0.1,1.2-0.4c0.3-0.2,0.4-0.6,0.4-0.9c0-0.4-0.1-0.7-0.4-0.9c-0.3-0.2-0.6-0.4-1.1-0.6
			c-0.4-0.2-0.9-0.4-1.4-0.6c-0.5-0.2-1-0.5-1.4-0.9c-0.4-0.3-0.8-0.8-1.1-1.4c-0.3-0.5-0.4-1.3-0.4-2.1c0-0.8,0.1-1.6,0.4-2.1
			c0.3-0.6,0.6-1,1.1-1.4c0.4-0.3,0.9-0.6,1.4-0.7c0.5-0.1,1-0.2,1.5-0.2c0.7,0,1.3,0.1,2,0.4c0.7,0.3,1.3,0.7,1.8,1.3
			c-0.1,0.2-0.3,0.4-0.4,0.7s-0.4,0.5-0.5,0.7c-0.2,0.2-0.4,0.5-0.6,0.9c-0.2-0.1-0.4-0.3-0.6-0.4c-0.2-0.1-0.4-0.2-0.7-0.2
			c-0.3-0.1-0.5-0.1-0.8-0.1c-0.3,0-0.6,0.1-0.9,0.2c-0.3,0.1-0.5,0.4-0.5,0.9c0,0.4,0.1,0.7,0.4,1c0.3,0.3,0.6,0.5,1.1,0.7
			c0.4,0.2,0.9,0.4,1.4,0.7c0.5,0.2,1,0.5,1.4,0.9c0.4,0.3,0.8,0.8,1.1,1.3c0.3,0.5,0.4,1.2,0.4,1.9
			C236.1,496,236,496.6,235.8,497.1z"/>
	</g>
	<g id="XMLID_97_">
		<path id="XMLID_47_" class="st2" d="M432.4,350c-0.5,0-1.1,0.1-1.6,0.4c-0.5,0.2-0.9,0.6-1.3,1c-0.4,0.4-0.7,0.9-0.9,1.4
			c-0.2,0.5-0.4,1.1-0.4,1.7c0,0.8,0.1,1.5,0.4,2.1c0.3,0.6,0.6,1.1,1.1,1.4s1,0.6,1.6,0.8c0.6,0.2,1.2,0.2,1.7,0.2
			c0.4,0,0.8,0,1.2-0.1c0.4-0.1,0.8-0.2,1.2-0.4c0.4-0.2,0.8-0.4,1.1-0.7c0.3-0.2,0.6-0.5,0.8-0.9c-0.8-1.1-1.6-2.2-2.5-3.4
			C433.9,352.3,433.1,351.1,432.4,350z"/>
		<path id="XMLID_48_" class="st2" d="M427.5,276.6c0-1.6-1-3.1-2.3-3.4c-0.3-0.1-0.6-0.2-0.8-0.2l0,0c-1.1,0-2.1,0.7-2.7,1.6
			c-0.3,0.5-0.5,1.3-0.5,2c0,1.9,1.4,3.6,3.2,3.6c0,0,0,0,0,0C426.1,280.2,427.5,278.6,427.5,276.6z"/>
		<path id="XMLID_49_" class="st2" d="M433.7,268.5c1.7,0,3-1.4,3.2-3.1c0-0.1,0-0.2,0-0.3c0-0.4,0-0.7-0.1-1.1
			c-0.4-1.4-1.6-2.4-3-2.4c-0.1,0-0.3,0-0.4,0c-1.6,0.2-2.8,1.7-2.8,3.4c0,1,0.4,1.9,1,2.5C432.1,268.2,432.9,268.5,433.7,268.5z"/>
		<path id="XMLID_50_" class="st2" d="M448.3,283.6c0,1.5,0.8,2.8,2,3.2c0.4,0.1,0.7,0.2,1.2,0.2c0.1,0,0.2,0,0.3,0
			c0.9-0.1,1.8-0.7,2.3-1.5c0.4-0.6,0.6-1.2,0.6-2c0-1.9-1.4-3.4-3.2-3.4c0,0-0.1,0-0.1,0C449.6,280.2,448.3,281.8,448.3,283.6z"/>
		<path id="XMLID_51_" class="st2" d="M428.3,287.5c-1,0-1.9,0.5-2.5,1.3c-0.4,0.5-0.7,1.2-0.7,1.9l0,0l0,0c0,0.1,0,0.1,0,0.2
			c0,0,0,0.1,0,0.1c0,1.9,1.5,3.3,3.2,3.3c1,0,1.9-0.5,2.5-1.3c0.4-0.6,0.7-1.4,0.7-2.2C431.5,289.1,430.1,287.5,428.3,287.5z"/>
		<path id="XMLID_52_" class="st2" d="M444.5,269.6c0,1.9,1.4,3.5,3.2,3.5c0.7,0,1.4-0.2,1.9-0.7c0.4-0.3,0.7-0.7,0.9-1.1
			c0.3-0.5,0.4-1.1,0.4-1.7c0-0.5-0.1-1-0.3-1.4c-0.5-1.3-1.6-2.1-2.9-2.1c-1.2,0-2.2,0.7-2.8,1.7
			C444.6,268.4,444.5,269,444.5,269.6z"/>
		<path id="XMLID_53_" class="st2" d="M441.7,290.9c-1.8,0-3.2,1.6-3.2,3.5c0,0.4,0.1,0.9,0.2,1.3c0.4,1.3,1.6,2.2,3,2.2
			c1.7,0,3.2-1.6,3.2-3.5c0-0.4,0-0.8-0.1-1.1C444.4,291.9,443.2,290.9,441.7,290.9z"/>
		<path id="XMLID_54_" class="st2" d="M475.7,352.1c0.5-0.2,1.1-0.4,1.5-0.6c-0.3-0.5-0.6-0.9-1.2-1.1c-0.5-0.2-1-0.4-1.5-0.4
			c-0.6,0-1.1,0.1-1.6,0.4c-0.5,0.2-0.9,0.6-1.3,1c-0.4,0.4-0.5,0.9-0.8,1.4s-0.2,1.1-0.2,1.6v0.1c0.4-0.2,1-0.5,1.6-0.7
			c0.6-0.3,1.2-0.5,1.8-0.8C474.6,352.6,475.2,352.4,475.7,352.1z"/>
		<path id="XMLID_57_" class="st2" d="M530.1,224H345.2c-10.5,0-18.9,9.2-18.9,20.6v104.2c0,11.4,8.5,20.6,18.9,20.6h184.9
			c10.5,0,18.9-9.2,18.9-20.6V244.6C549,233.2,540.6,224,530.1,224z M478.6,279.3c0,3.8,0,7.2,0,10.6c0,3.2-0.3,6.4,0,9.6
			c0.2,2.5-0.8,3.8-2.7,4.8c-3.6,1.9-7,4-10.4,6.3c-1.9,1.3-3.4,1.6-5.2,0c-0.9-0.8-2-1.4-3.3-2.3c4.3-2.7,8.2-5.3,12.3-7.4
			c2.7-1.4,3.8-3.3,3.4-6.4c-0.1-1.2-0.1-2.3-0.1-4c-1.6,0.9-2.7,1.6-3.8,2.3c-5.6,3.4-11.2,6.8-16.8,10.3c-1.2,0.7-2,0.8-3.2,0
			c-1.5-1-3-2-4.5-3c-0.7,0.3-1.5,0.5-2.3,0.5c-3.2,0-5.8-2.8-5.8-6.3c0-3.5,2.6-6.3,5.8-6.3s5.8,2.8,5.8,6.3c0,0.2,0,0.4,0,0.6
			c2.3,1.5,4.4,0.9,7-0.8c7-4.7,14.2-8.8,21.4-13.2C476.6,280.5,477.4,280.1,478.6,279.3z M456.9,271.3c-0.3-8.9-0.1-17.8-0.1-26.7
			c0-1,0-2,0-3.5c3.1,1.9,5.7,3.5,8.4,5.2c2.6,1.6,5,3.4,7.7,4.7c2.1,1.1,2.6,2.6,2.5,5c-0.2,4.3-0.2,8.6,0,12.9
			c0.1,2.4-0.4,4-2.6,4.9c-1.1,0.4-2,1.2-3.4,2c0-5.4-0.2-10.3,0.1-15.2c0.2-3.2-0.8-5.2-3.6-6.3c-1-0.4-2-1.1-3.3-1.8v4.8
			c0,7,0,14,0.1,20.9c0,1.5-0.3,2.3-1.5,3.1c-1.3,0.8-2.6,1.6-4,2.4c0,3.4-2.6,6.3-5.8,6.3s-5.8-2.8-5.8-6.3s2.6-6.3,5.8-6.3
			c1,0,2,0.3,2.9,0.8C456.5,276.7,457,274.4,456.9,271.3z M426.4,236.7c2.6-1.5,5.3-2.7,7.9-4.4c2-1.4,3.4-1,5.2,0.4
			c3.2,2.5,6.6,4.9,10,7.1c1.9,1.2,2.9,2.6,2.4,5c-0.2,1.2-0.2,2.5-0.4,4.2c-4.1-3-8.1-5.5-11.7-8.4c-2.4-1.9-4.4-2.1-6.8-0.3
			c-0.8,0.7-1.9,1.1-3.2,2c1.5,1.1,2.6,1.8,3.7,2.6c5.4,3.8,10.7,7.7,16.1,11.4c1.1,0.8,1.6,1.6,1.5,3.1c-0.1,1.6-0.2,3.2-0.3,4.9
			c1.6,1.1,2.7,3.1,2.7,5.3c0,3.5-2.6,6.3-5.8,6.3s-5.8-2.8-5.8-6.3c0-2.4,1.3-4.6,3.1-5.6c0-2.8-1.4-4.5-3.9-6.2
			c-7-4.6-13.8-9.7-20.6-14.5c-0.8-0.5-1.5-1.1-2.7-1.9C420.9,239.7,423.7,238.2,426.4,236.7z M380.1,357.8
			c-0.4,0.9-0.9,1.7-1.7,2.3c-0.8,0.6-1.7,1.2-2.9,1.5c-1.2,0.3-2.5,0.5-4,0.5c-0.9,0-1.8,0-2.6-0.2c-0.8-0.1-1.5-0.3-2-0.5
			c-0.6-0.2-1.2-0.4-1.6-0.7c-0.5-0.2-0.9-0.5-1.2-0.7l1.7-3.7c0.9,0.5,1.9,1,2.9,1.3c1,0.3,1.9,0.4,2.7,0.4c0.4,0,0.9,0,1.5-0.1
			c0.6-0.1,1.2-0.3,1.8-0.5c0.6-0.2,1.1-0.6,1.5-1.1c0.4-0.4,0.6-1,0.6-1.7c0-0.8-0.3-1.5-0.8-2c-0.6-0.5-1.3-1-2.1-1.4
			c-0.8-0.4-1.8-0.8-2.8-1.2c-1-0.4-1.9-0.9-2.8-1.4c-0.8-0.5-1.6-1.2-2.1-2c-0.6-0.8-0.8-1.8-0.8-3.1c0-0.9,0.2-1.7,0.5-2.6
			s0.8-1.6,1.5-2.3c0.7-0.7,1.5-1.2,2.5-1.6c1-0.4,2.1-0.6,3.4-0.6c0.8,0,1.6,0.1,2.4,0.2c0.8,0.1,1.5,0.3,2.1,0.5
			c0.6,0.2,1.1,0.4,1.6,0.5c0.4,0.2,0.7,0.3,0.8,0.3l-1.4,3.5c-0.9-0.3-1.8-0.6-2.7-0.8c-0.9-0.2-1.7-0.3-2.5-0.3
			c-1.3,0-2.3,0.3-3.1,0.8c-0.8,0.6-1.2,1.3-1.2,2.1c0,0.7,0.3,1.4,0.8,1.8c0.6,0.5,1.3,0.9,2.1,1.3s1.8,0.7,2.8,1.1
			c1,0.4,1.9,0.9,2.8,1.5c0.8,0.6,1.6,1.4,2.1,2.3c0.6,0.9,0.8,2.1,0.8,3.5C380.6,355.8,380.5,356.9,380.1,357.8z M392.5,362.1
			c-0.7-1.5-1.4-2.2-2.1-3.2s-1.5-2.1-2.2-3.1l-1.8,1.7v4.7h-3.1v-27.6h3.1v19c1.3-1.2,2.3-2.3,3.4-3.4c1.1-1.1,2.2-2.2,3.4-3.4
			l1.8,1.9c-0.8,0.8-1.6,1.6-2.3,2.4c-0.8,0.8-1.5,1.6-2.3,2.4c1,1.4,1.9,2.9,2.8,4.3c0.9,1.4,1.9,2.9,2.8,4.3L392.5,362.1
			L392.5,362.1z M397,269.6c0.1-3.2,0.4-6.4,0.4-9.6c-0.1-2.5,0.9-3.7,2.9-4.7c3.6-1.8,7.1-3.8,10.6-6c1.9-1.3,3.5-1.4,5.2,0.2
			c0.8,0.8,1.9,1.4,3.2,2.4c-4.4,2.5-8.3,4.9-12.5,6.9c-2.7,1.3-3.9,3.1-3.6,6.3c0.1,1.2,0,2.3,0,4c1.6-0.9,2.8-1.6,3.9-2.2
			c5.7-3.2,11.4-6.4,17.1-9.7c1.2-0.7,2-0.8,3.2,0.1c1.1,0.8,2.1,1.6,3.3,2.3c0.9-0.6,2-1,3.1-1c3.2,0,5.7,2.9,5.7,6.3
			s-2.6,6.3-5.8,6.3c-3.1,0-5.6-2.7-5.8-6c-2.1-1.3-4.2-0.7-6.7,0.8c-7.1,4.4-14.5,8.3-21.7,12.4c-0.8,0.5-1.6,0.9-2.9,1.6
			C396.8,276.4,396.9,273,397,269.6z M401.1,362.1H398v-15h3.1V362.1z M401,342.9c-0.4,0.4-0.8,0.6-1.3,0.6c-0.5,0-0.9-0.2-1.3-0.6
			c-0.4-0.4-0.6-0.9-0.6-1.5c0-0.6,0.2-1.1,0.6-1.5s0.8-0.6,1.3-0.6s0.9,0.2,1.3,0.6c0.4,0.4,0.6,0.9,0.6,1.5
			C401.5,341.9,401.4,342.5,401,342.9z M408.2,362.1h-3.1v-27.6h3.1V362.1z M414.9,362.1h-3.1v-27.6h3.1V362.1z M418.1,289
			c0,8.9-0.4,17.8-0.7,26.7c0,1,0,2-0.1,3.5c-3-2-5.6-3.8-8.2-5.5c-2.5-1.7-4.9-3.6-7.5-5c-2.1-1.2-2.6-2.7-2.4-5.1
			c0.3-4.3,0.4-8.6,0.4-12.9c0-2.4,0.6-4,2.8-4.8c1.1-0.4,2-1.1,3.5-1.9c-0.2,5.4-0.1,10.3-0.5,15.2c-0.3,3.2,0.6,5.2,3.3,6.5
			c1,0.5,1.9,1.1,3.2,2c0-1.9,0.1-3.4,0.1-4.8c0.2-7,0.4-14,0.6-20.9c0-1.5,0.4-2.3,1.6-3c1.5-0.8,2.9-1.6,4.4-2.5
			c0-3.4,2.6-6.2,5.8-6.2c3.2,0,5.8,2.8,5.8,6.3c0,3.5-2.6,6.3-5.8,6.3c-1.1,0-2.1-0.3-2.9-0.9C418.8,283.3,418.1,285.6,418.1,289z
			 M441.2,362.1c0,0-0.2-0.3-0.6-0.8c-0.4-0.5-0.8-1.1-1.4-1.8c-0.7,0.9-1.6,1.6-2.7,2.1c-1.1,0.5-2.3,0.8-3.7,0.8
			c-1.1,0-2.1-0.2-3.1-0.6c-0.9-0.4-1.7-0.9-2.4-1.6s-1.2-1.5-1.6-2.4c-0.4-0.9-0.6-1.9-0.6-3.1c0-0.9,0.1-1.8,0.4-2.6
			c0.3-0.8,0.6-1.6,1.1-2.2c0.5-0.6,1-1.2,1.7-1.7c0.7-0.5,1.4-0.8,2.1-1.1c-0.3-0.4-0.5-0.8-0.7-1.2s-0.4-0.8-0.5-1.1
			c-0.4-0.8-0.7-1.5-0.9-2.1c-0.2-0.6-0.4-1.3-0.4-2c0-0.8,0.1-1.5,0.4-2.1s0.7-1.2,1.2-1.6c0.5-0.4,1.1-0.8,1.8-1s1.4-0.4,2.2-0.4
			c1,0,2,0.1,2.8,0.4s1.5,0.6,2,1c-0.4,0.6-0.7,1-0.8,1.3c-0.2,0.3-0.5,0.7-0.8,1.3c-0.2-0.1-0.4-0.3-0.7-0.4
			c-0.3-0.1-0.7-0.2-1.1-0.3c-0.4,0-0.8-0.1-1.3,0s-0.8,0.1-1.2,0.3c-0.4,0.2-0.7,0.4-0.9,0.8c-0.2,0.3-0.4,0.8-0.4,1.3
			c0,0.6,0.1,1.1,0.3,1.6c0.2,0.5,0.4,0.8,0.4,0.9l6.6,9.5l2.4-6.5h3.3l-3.5,9.6l4,5.9L441.2,362.1L441.2,362.1z M442.5,328.6
			c-2,1.4-3.4,1.1-5.3-0.2c-3.3-2.4-6.7-4.7-10.2-6.7c-2-1.2-2.9-2.5-2.5-5c0.2-1.2,0.1-2.5,0.2-4.2c4.2,2.8,8.2,5.2,11.9,8
			c2.5,1.8,4.5,2,6.8,0c0.8-0.7,1.8-1.2,3.2-2.1c-1.5-1-2.7-1.7-3.8-2.5c-5.5-3.6-11-7.3-16.5-10.9c-1.2-0.7-1.6-1.5-1.6-3
			c0.1-1.9,0.1-3.8,0.2-5.8c-1.5-1.1-2.5-3-2.5-5.2c0-3.5,2.6-6.3,5.8-6.3s5.8,2.8,5.8,6.3c0,2.5-1.3,4.7-3.3,5.7
			c-0.1,3.1,1.4,4.8,4.1,6.4c7.1,4.4,14,9.2,21,13.8c0.8,0.5,1.6,1,2.8,1.8c-3.1,1.8-5.8,3.5-8.5,5.1
			C447.7,325.4,444.9,326.8,442.5,328.6z M462.6,362.1h-4v-21.3h-5.3v-4.4h15.2v4.4h-5.8V362.1z M472.4,358.4
			c0.6,0.4,1.4,0.7,2.2,0.7c0.5,0,1.1-0.1,1.7-0.3s1-0.5,1.4-0.9l2.3,2.4c-0.7,0.6-1.5,1.2-2.4,1.6c-0.9,0.4-1.9,0.6-2.9,0.6
			c-1,0-2-0.2-2.9-0.6c-0.9-0.4-1.6-1-2.3-1.7c-0.7-0.7-1.2-1.6-1.6-2.5s-0.6-1.9-0.6-3s0.2-2.1,0.6-3c0.4-0.9,0.9-1.7,1.6-2.5
			s1.4-1.3,2.3-1.7c0.8-0.4,1.8-0.6,2.8-0.6c1.6,0,2.9,0.5,4.1,1.5c1.2,1,2,2.3,2.5,4c-0.6,0.2-1.4,0.6-2.2,0.9
			c-0.8,0.3-1.7,0.7-2.6,1.1c-0.9,0.4-1.8,0.8-2.8,1.2c-0.9,0.4-1.8,0.8-2.5,1.1C471.2,357.3,471.7,357.9,472.4,358.4z M485.9,356.2
			c0.2,0.5,0.5,1,0.8,1.5c0.4,0.4,0.8,0.7,1.3,1c0.5,0.2,1.1,0.3,1.7,0.3c1.1,0,2-0.3,2.7-1c0.3,0.4,0.6,0.9,0.9,1.3
			s0.6,0.8,0.9,1.3c-0.6,0.5-1.3,1-2.1,1.3c-0.8,0.3-1.6,0.5-2.5,0.5c-1,0-2-0.2-2.9-0.6c-0.9-0.4-1.6-1-2.3-1.7
			c-0.7-0.7-1.2-1.6-1.6-2.5c-0.4-1-0.6-2-0.6-3.1c0-1.1,0.2-2.1,0.6-3c0.4-0.9,0.9-1.7,1.6-2.5c0.7-0.7,1.4-1.3,2.3-1.7
			c0.9-0.4,1.8-0.6,2.9-0.6c0.9,0,1.7,0.1,2.5,0.5c0.8,0.3,1.5,0.7,2.1,1.3l-2,2.5c-0.8-0.6-1.6-0.9-2.7-0.9c-0.6,0-1.2,0.1-1.7,0.3
			c-0.5,0.2-0.9,0.5-1.3,0.9c-0.4,0.4-0.7,0.9-0.8,1.4c-0.2,0.5-0.3,1.2-0.3,1.8C485.6,355.1,485.7,355.7,485.9,356.2z M510.3,362.1
			h-3.1v-9.4c0-0.7-0.3-1.4-0.8-1.9c-0.4-0.5-1.1-0.8-2-0.9c-0.6,0-1.2,0.1-1.7,0.4c-0.5,0.2-1,0.6-1.3,1c-0.4,0.4-0.7,0.9-0.9,1.5
			c-0.2,0.6-0.4,1.2-0.4,1.9v7.3h-3.1v-27.6h3.1v16.2c0.4-1.2,1.2-2.1,2-2.9c0.8-0.7,2-1.1,3.3-1.1c1.4,0,2.6,0.4,3.5,1.2
			c0.8,0.8,1.4,1.9,1.4,3.2L510.3,362.1L510.3,362.1z"/>
	</g>
	<g id="XMLID_96_">
		<path id="XMLID_45_" class="st3" d="M199.8,158.5c-0.4-0.4-0.8-0.7-1.3-0.9c-0.5-0.2-1.1-0.3-1.7-0.3c-0.6,0-1.2,0.1-1.7,0.3
			c-0.5,0.2-0.9,0.5-1.3,0.9c-0.4,0.4-0.7,0.9-0.8,1.5c-0.2,0.5-0.3,1.1-0.3,1.7c0,0.6,0.1,1.3,0.3,1.8c0.2,0.6,0.5,1,0.8,1.5
			c0.4,0.4,0.8,0.7,1.3,1c0.5,0.2,1.1,0.3,1.7,0.3c0.6,0,1.2-0.1,1.7-0.3c0.5-0.2,1-0.6,1.3-1c0.4-0.4,0.7-0.9,0.8-1.5
			c0.2-0.6,0.3-1.2,0.3-1.8c0-0.6-0.1-1.2-0.3-1.7C200.5,159.3,200.2,158.9,199.8,158.5z"/>
		<path id="XMLID_46_" class="st3" d="M95.5,159.3c0.5-0.2,1.1-0.4,1.5-0.6c-0.3-0.5-0.6-0.9-1.2-1.1c-0.5-0.2-1-0.4-1.5-0.4
			c-0.6,0-1.1,0.1-1.6,0.4c-0.5,0.2-0.9,0.6-1.3,1c-0.4,0.4-0.5,0.9-0.8,1.4c-0.2,0.5-0.2,1.1-0.2,1.6v0.1c0.4-0.2,1-0.5,1.6-0.7
			c0.6-0.3,1.2-0.5,1.8-0.8C94.4,159.8,94.9,159.5,95.5,159.3z"/>
		<path id="XMLID_2_" class="st3" d="M164,78.1l0.4-2.3c0.4-1.4,0.4-3.3,0.4-6c0-13.7-13-15.6-14.7-15.6h-1.7l-1.2-0.8
			c-2.1-1.8-4.2-2.6-5.9-3.1h-16.8c-1.7,0.5-3.8,1.3-5.9,3.1l-1.2,0.8h-1.6c-1.2,0-14.7,1.9-14.7,15.6c0,2.3,0.4,4.6,0.4,6l0.4,3.2
			l-1.2,1.8c-0.4,0.9-2.5,4.6-2.5,12.3l8,4.6c0,0,4.2-4.1,6.7-8.7c0,9.1,3.8,14.1,3.8,14.1c0,0.9,0,3.6,0,5c0,1.4-0.4,2.3-0.4,3.2
			c-0.4,1.8-0.4,2.8-0.4,5c0,2.7,3.3,7.1,8.4,11h19.3c5-3.9,8.4-8.2,8.4-11c0-2.3-0.4-3.2-0.4-5c0-0.9-0.4-1.8-0.4-3.2
			c0-1.4,0-4.1,0-5c0,0,2.5-4.6,3.3-14.1c0.8,1.4,2.1,8.2,6.7,8.7l6.7-5c0-8.2-1.7-11.4-2.5-12.7L164,78.1z M118.7,92.7
			c0-1.4,0.8-4.1,2.9-4.1c2.5,0,7.1,0,7.1,0s3.3,0.4,3.8,3.2c0,1.4,0.4,3.6-0.4,4.6c-2.5,2.7-10.5,1.4-11.3,0.4
			C120,95.9,118.7,94.1,118.7,92.7z M132.1,121.8c-1.7,2.7-6.7,0-7.5-1.4c-0.8-1.4-2.9-4.1-2.9-6.8c0-1.8,0.4-3.2,2.1-3.6
			c2.1-0.4,5.9,0,5.9,0s2.9,0.4,2.9,4.6C132.6,116.4,133,121,132.1,121.8z M132.1,106.8c-2.1,2.7-9.2,0.9-10.1,0s-2.1-2.3-1.7-3.2
			c0-1.4,0.8-3.6,2.9-4.1c1.7-0.4,5.9,0,5.9,0s2.9,0.4,3.3,3.2C132.6,104.1,133,105.9,132.1,106.8z M142.2,120.5
			c-0.8,1.4-5.9,4.1-7.5,1.4c-0.8-0.9-0.4-5.5-0.4-7.3c0-4.1,2.9-4.6,2.9-4.6s3.8-0.4,5.9,0c1.7,0.4,2.1,1.8,2.1,3.6
			C145.2,116.4,143.1,119.1,142.2,120.5z M144.7,106.8c-0.8,0.9-8,2.7-10.1,0c-0.8-0.9-0.4-2.7-0.4-4.1c0.4-2.7,3.3-3.2,3.3-3.2
			s4.2-0.4,5.9,0c2.1,0.4,2.9,2.7,2.9,4.1C146.8,104.5,145.6,105.9,144.7,106.8z M146,96.8c-0.8,0.9-8.8,2.3-11.3-0.4
			c-0.8-0.9-0.4-3.2-0.4-4.6c0.4-2.7,3.8-3.2,3.8-3.2s4.6,0,7.1,0c2.1,0,2.9,2.7,2.9,4.1C148.1,94.1,146.8,95.9,146,96.8z"/>
		<path id="XMLID_1_" class="st3" d="M225.2,33.4H40.3c-10.5,0-18.9,9.2-18.9,20.6v104.2c0,11.4,8.5,20.6,18.9,20.6h184.9
			c10.5,0,18.9-9.2,18.9-20.6V54C244.1,42.6,235.7,33.4,225.2,33.4z M50.3,165c-0.4,0.9-0.9,1.7-1.7,2.3c-0.8,0.6-1.7,1.2-2.9,1.5
			c-1.2,0.3-2.5,0.5-4,0.5c-0.9,0-1.8,0-2.6-0.2c-0.8-0.1-1.5-0.3-2-0.5c-0.6-0.2-1.2-0.4-1.6-0.7c-0.5-0.2-0.9-0.5-1.2-0.7l1.7-3.7
			c0.9,0.5,1.9,1,2.9,1.3s1.9,0.4,2.7,0.4c0.4,0,0.9,0,1.5-0.1c0.6-0.1,1.2-0.3,1.8-0.5c0.6-0.2,1.1-0.6,1.5-1.1
			c0.4-0.4,0.6-1,0.6-1.7c0-0.8-0.3-1.5-0.8-2c-0.6-0.5-1.3-1-2.1-1.4c-0.8-0.4-1.8-0.8-2.8-1.2c-1-0.4-1.9-0.9-2.8-1.4
			c-0.8-0.5-1.6-1.2-2.1-2c-0.6-0.8-0.8-1.8-0.8-3.1c0-0.9,0.2-1.7,0.5-2.6c0.3-0.9,0.8-1.6,1.5-2.3c0.7-0.7,1.5-1.2,2.5-1.6
			c1-0.4,2.1-0.6,3.4-0.6c0.8,0,1.6,0.1,2.4,0.2c0.8,0.1,1.5,0.3,2.1,0.5c0.6,0.2,1.1,0.4,1.6,0.5c0.4,0.2,0.7,0.3,0.8,0.3l-1.4,3.5
			c-0.9-0.3-1.8-0.6-2.7-0.8c-0.9-0.2-1.7-0.3-2.5-0.3c-1.3,0-2.3,0.3-3.1,0.8c-0.8,0.6-1.2,1.3-1.2,2.1c0,0.7,0.3,1.4,0.8,1.8
			c0.6,0.5,1.3,0.9,2.1,1.3c0.8,0.4,1.8,0.7,2.8,1.1c1,0.4,1.9,0.9,2.8,1.5c0.8,0.6,1.6,1.4,2.1,2.3c0.6,0.9,0.8,2.1,0.8,3.5
			C50.9,163.1,50.7,164.1,50.3,165z M66.8,169.5h-2.7l-0.4-4.2c-0.5,1.2-1.2,2.1-2,2.9c-0.8,0.8-2,1.2-3.4,1.2s-2.6-0.4-3.4-1.2
			c-0.8-0.8-1.4-1.9-1.4-3.2v-10.5h3.1v9c0,0.7,0.3,1.3,0.8,1.8c0.4,0.5,1.1,0.8,2,0.8c0.6,0,1.2-0.1,1.7-0.3c0.5-0.2,1-0.6,1.3-1
			c0.4-0.4,0.7-0.9,0.9-1.5c0.2-0.6,0.4-1.2,0.4-1.9v-6.9h3.1L66.8,169.5L66.8,169.5z M84.5,164.8c-0.4,0.9-0.8,1.7-1.5,2.5
			c-0.6,0.7-1.4,1.3-2.3,1.6c-0.9,0.4-1.8,0.6-2.9,0.6s-2-0.2-2.8-0.6c-0.8-0.4-1.3-0.9-1.6-1.4c0,0.1,0,0.2,0,0.2
			c0,0.1,0,0.2,0,0.3v8.3h-3.1v-21.8h3c0,0,0,0.5,0,0.9c0,0.3,0,0.6,0,0.8c0.2-0.2,0.4-0.5,0.7-0.8c0.3-0.3,0.6-0.5,1-0.7
			c0.4-0.2,0.8-0.4,1.3-0.6c0.5-0.1,1-0.2,1.6-0.2c1.1,0,2,0.2,2.9,0.5c0.8,0.3,1.6,0.9,2.2,1.6c0.6,0.7,1.1,1.5,1.4,2.5
			s0.5,2,0.5,3.2C85,162.8,84.8,163.9,84.5,164.8z M92.1,165.6c0.6,0.4,1.4,0.7,2.2,0.7c0.5,0,1.1-0.1,1.7-0.3
			c0.6-0.2,1-0.5,1.4-0.9l2.3,2.4c-0.7,0.6-1.5,1.2-2.4,1.6c-0.9,0.4-1.9,0.6-2.9,0.6c-1,0-2-0.2-2.9-0.6c-0.9-0.4-1.6-1-2.3-1.7
			c-0.7-0.7-1.2-1.6-1.6-2.5s-0.6-1.9-0.6-3c0-1.1,0.2-2.1,0.6-3c0.4-0.9,0.9-1.7,1.6-2.5c0.7-0.7,1.4-1.3,2.3-1.7
			c0.8-0.4,1.8-0.6,2.8-0.6c1.6,0,2.9,0.5,4.1,1.5c1.2,1,2,2.3,2.5,4c-0.6,0.2-1.4,0.6-2.2,0.9c-0.8,0.3-1.7,0.7-2.6,1.1
			c-0.9,0.4-1.8,0.8-2.8,1.2c-0.9,0.4-1.8,0.8-2.5,1.1C91,164.5,91.5,165.1,92.1,165.6z M110.8,158.2c-0.6,0-1.2,0.1-1.7,0.2
			c-0.5,0.1-1,0.4-1.4,0.7c-0.4,0.3-0.7,0.8-0.9,1.3s-0.3,1.1-0.3,1.7v6.9h-3.1v-14.5h2.5c0,0.5,0.1,1.4,0.1,1.9
			c0,0.5,0.1,1.1,0.1,1.7c0.3-0.6,0.7-1.3,1.1-1.8c0.5-0.5,0.9-1,1.5-1.3c0.5-0.3,1-0.6,1.5-0.8c0.5-0.2,0.9-0.3,1.2-0.3
			L110.8,158.2z M135,165c-0.4,0.9-0.9,1.7-1.7,2.3c-0.8,0.6-1.7,1.2-2.9,1.5c-1.2,0.3-2.5,0.5-4,0.5c-0.9,0-1.8,0-2.6-0.2
			c-0.8-0.1-1.5-0.3-2-0.5c-0.6-0.2-1.2-0.4-1.6-0.7c-0.5-0.2-0.9-0.5-1.2-0.7l1.7-3.7c0.9,0.5,1.9,1,2.9,1.3c1,0.3,1.9,0.4,2.7,0.4
			c0.4,0,0.9,0,1.5-0.1c0.6-0.1,1.2-0.3,1.8-0.5c0.6-0.2,1.1-0.6,1.5-1.1c0.4-0.4,0.6-1,0.6-1.7c0-0.8-0.3-1.5-0.8-2
			c-0.6-0.5-1.3-1-2.1-1.4c-0.8-0.4-1.8-0.8-2.8-1.2s-1.9-0.9-2.8-1.4c-0.8-0.5-1.6-1.2-2.1-2c-0.6-0.8-0.8-1.8-0.8-3.1
			c0-0.9,0.2-1.7,0.5-2.6c0.3-0.9,0.8-1.6,1.5-2.3c0.7-0.7,1.5-1.2,2.5-1.6s2.1-0.6,3.4-0.6c0.8,0,1.6,0.1,2.4,0.2
			c0.8,0.1,1.5,0.3,2.1,0.5c0.6,0.2,1.1,0.4,1.6,0.5c0.4,0.2,0.7,0.3,0.8,0.3l-1.4,3.5c-0.9-0.3-1.8-0.6-2.7-0.8
			c-0.9-0.2-1.7-0.3-2.5-0.3c-1.3,0-2.3,0.3-3.1,0.8c-0.8,0.6-1.2,1.3-1.2,2.1c0,0.7,0.3,1.4,0.8,1.8c0.6,0.5,1.3,0.9,2.1,1.3
			c0.8,0.4,1.8,0.7,2.8,1.1c1,0.4,1.9,0.9,2.8,1.5c0.8,0.6,1.6,1.4,2.1,2.3c0.6,0.9,0.8,2.1,0.8,3.5
			C135.6,163.1,135.4,164.1,135,165z M146.1,157.4h-3.6V169h-3.1v-11.6h-2.2v-2.9h2.2v-6.8h3.1v6.8h3.6V157.4z M155.8,158.2
			c-0.6,0-1.2,0.1-1.7,0.2c-0.5,0.1-1,0.4-1.4,0.7c-0.4,0.3-0.7,0.8-0.9,1.3s-0.3,1.1-0.3,1.7v6.9h-3.1v-14.5h2.5
			c0,0.5,0.1,1.4,0.1,1.9s0.1,1.1,0.1,1.7c0.3-0.6,0.7-1.3,1.1-1.8c0.5-0.5,0.9-1,1.5-1.3c0.5-0.3,1-0.6,1.5-0.8
			c0.5-0.2,0.9-0.3,1.2-0.3L155.8,158.2z M162.5,165.6c0.6,0.4,1.4,0.7,2.2,0.7c0.5,0,1.1-0.1,1.7-0.3c0.6-0.2,1-0.5,1.4-0.9
			l2.3,2.4c-0.7,0.6-1.5,1.2-2.4,1.6c-0.9,0.4-1.9,0.6-2.9,0.6c-1,0-2-0.2-2.9-0.6c-0.9-0.4-1.6-1-2.3-1.7c-0.7-0.7-1.2-1.6-1.6-2.5
			s-0.6-1.9-0.6-3c0-1.1,0.2-2.1,0.6-3s0.9-1.7,1.6-2.5s1.4-1.3,2.3-1.7s1.8-0.6,2.8-0.6c1.6,0,2.9,0.5,4.1,1.5c1.2,1,2,2.3,2.5,4
			c-0.6,0.2-1.4,0.6-2.2,0.9c-0.8,0.3-1.7,0.7-2.6,1.1c-0.9,0.4-1.8,0.8-2.8,1.2c-0.9,0.4-1.8,0.8-2.5,1.1
			C161.3,164.5,161.9,165.1,162.5,165.6z M172,99.1l-10.1,5.9c-1.2,0.4-2.1,0.9-3.4,0.9c-0.4,0-1.7-2.3-1.7-2.3c0,0.4,0,3.2,0,3.6
			c0,1.4,0.4,2.3,0.4,3.2c0.4,1.8,0.4,3.2,0.4,5.9c0,6.8-6.7,13.2-10.9,16.4c-1.2,0.9-2.5,1.4-3.7,1.4h-19.3c-1.2,0-2.5-0.4-3.8-1.8
			c-4.2-2.7-11.3-9.1-11.3-16.4c0-2.7,0-4.1,0.4-5.9c0-0.9,0.4-1.8,0.4-3.2c0-0.4,0-3.2,0-3.6c0,0-1.3,2.3-1.7,2.3
			c-1.2,0-2.5-0.4-3.3-0.9l-10.1-5.9c-1.7-1.4-2.9-3.6-2.9-5.9c0-9.1,2.1-13.7,3.8-15.9c-0.4-1.4-0.4-3.2-0.4-6.8
			c0-15,11.7-21.4,20.5-22.3c2.9-2.3,5.9-4.1,8.4-4.5c0.4,0,0.8,0,1.2,0.5h16.8c0.4,0,0.8,0,1.2,0c2.5,0.5,5.4,1.8,8.4,4.1
			c8.8,0.9,20.5,7.3,20.5,22.3c0,3.6-0.4,5.5-0.4,6.8c1.7,2.3,3.8,6.8,3.3,16.4C174.9,95.4,174.1,97.7,172,99.1z M186.7,169h-3.1
			v-9.1c0-0.7-0.3-1.4-0.7-1.9c-0.4-0.5-1.1-0.8-2-0.9c-0.6,0-1.2,0.1-1.7,0.4c-0.5,0.2-1,0.6-1.3,1c-0.4,0.4-0.8,0.9-1,1.5
			c-0.2,0.6-0.4,1.2-0.4,1.9v7.1h-2.7v-14.5h2.5c0,0.5,0.1,1.4,0.1,1.9c0,0.5,0.1,1.1,0.1,1.7c0.5-1.3,1.2-2.3,2.1-3.1
			c0.9-0.8,2-1.2,3.4-1.2c1.4,0,2.5,0.4,3.3,1.2c0.8,0.8,1.3,1.9,1.3,3.2V169z M204,168.3c0,1.3-0.2,2.4-0.5,3.3s-0.8,1.8-1.5,2.5
			c-0.7,0.7-1.4,1.2-2.4,1.5c-0.9,0.3-1.9,0.5-3,0.5c-0.8,0-1.6-0.1-2.2-0.3c-0.6-0.2-1.2-0.4-1.7-0.7c-0.5-0.3-1-0.6-1.4-1
			c-0.4-0.4-0.8-0.7-1.2-1.1l2-2.3c0.6,0.6,1.2,1.1,1.9,1.6c0.7,0.4,1.5,0.6,2.5,0.6c1.3,0,2.4-0.3,3.2-1.1c0.8-0.7,1.2-1.7,1.2-3
			c0-0.1,0-0.2,0-0.4c0-0.1,0-0.3,0-0.5c0-0.2,0-0.4,0.1-0.6c0-0.1,0-0.3,0-0.4c-0.2,0.2-0.4,0.5-0.7,0.8c-0.3,0.3-0.6,0.5-1,0.8
			c-0.4,0.2-0.8,0.4-1.3,0.6c-0.5,0.1-1.1,0.2-1.7,0.2c-1,0-2-0.2-2.8-0.6c-0.8-0.4-1.6-0.9-2.2-1.6c-0.6-0.7-1.1-1.5-1.4-2.4
			c-0.4-0.9-0.5-1.9-0.5-3.1c0-1.1,0.2-2.2,0.5-3.1c0.4-1,0.8-1.8,1.5-2.5s1.4-1.3,2.2-1.6c0.8-0.4,1.7-0.6,2.7-0.6
			c0.7,0,1.4,0.1,1.9,0.3s1,0.4,1.4,0.7c0.4,0.2,0.7,0.5,0.8,0.7c0.2,0.2,0.3,0.4,0.4,0.4c0-0.2,0-0.4,0-0.7c0-0.3,0-0.8,0-0.8h2.9
			L204,168.3L204,168.3z M215.6,157.4h-3.6V169h-3.1v-11.6h-2.2v-2.9h2.2v-6.8h3.1v6.8h3.6V157.4z M231.2,169h-3.1v-9.1
			c0-0.7-0.4-1.4-0.8-1.9c-0.4-0.5-1.1-0.8-2-0.9c-0.6,0-1.2,0.1-1.7,0.4c-0.5,0.2-1,0.6-1.3,1s-0.7,0.9-0.9,1.5
			c-0.2,0.6-0.4,1.2-0.4,1.9v7.1h-3.1v-27.1h3.1v15.9c0.4-1.2,1.2-2.1,2-2.9c0.8-0.7,2-1.1,3.3-1.1c1.4,0,2.6,0.4,3.5,1.2
			c0.8,0.8,1,1.9,1.4,3.2L231.2,169L231.2,169z"/>
		<path id="XMLID_71_" class="st3" d="M165.8,159.3c0.5-0.2,1.1-0.4,1.5-0.6c-0.3-0.5-0.6-0.9-1.2-1.1c-0.5-0.2-1-0.4-1.5-0.4
			c-0.6,0-1.1,0.1-1.6,0.4c-0.5,0.2-0.9,0.6-1.3,1c-0.4,0.4-0.8,0.9-0.9,1.4c-0.2,0.5-0.4,1.1-0.4,1.6v0.1c0.9-0.2,1.2-0.5,1.8-0.7
			c0.6-0.2,1.2-0.5,1.9-0.8C164.6,159.8,165.3,159.5,165.8,159.3z"/>
		<path id="XMLID_72_" class="st3" d="M77.7,157.2c-0.6,0-1.2,0.1-1.7,0.3c-0.5,0.2-0.9,0.5-1.3,0.9c-0.4,0.4-0.7,0.9-0.9,1.5
			c-0.2,0.5-0.3,1.1-0.3,1.7c0,0.6,0.1,1.3,0.3,1.8c0.2,0.6,0.5,1,0.9,1.5c0.4,0.4,0.8,0.7,1.3,1c0.5,0.2,1.1,0.3,1.7,0.3
			c0.6,0,1.2-0.1,1.6-0.3c0.5-0.2,0.9-0.6,1.2-1c0.3-0.4,0.6-0.9,0.8-1.5s0.3-1.1,0.3-1.7c0-1.3-0.4-2.4-1-3.2
			C79.9,157.6,79,157.2,77.7,157.2z"/>
	</g>
	<path id="XMLID_99_" d="M67.8,209.2c-1.1,0.6-2.4,1.4-3.5,2c-25.3,14.8-35.8,47.5-25.6,75.7L11,303.2l60.5,19.7
		c2.5,1,5.2-0.7,6.1-3.4l18.2-66l-29.6,17.3c-1.2-1.7-2.3-3.6-3.3-5.6C53.7,246.6,56.4,224.6,67.8,209.2z"/>
	<path id="XMLID_95_" d="M366.7,193.2c0.5-1.3,1-2.7,1.5-4c10.3-29.2-1.4-61.4-26.1-75.6l11.2-32.1l-57.7,28c-2.5,1-3.5,4.2-2.6,6.9
		l25.8,62.9l12-34.1c1.9,0.5,3.9,1.1,5.9,1.9C354.9,154.8,366.1,173.4,366.7,193.2z"/>
	<path id="XMLID_102_" d="M320.2,465.3c1.1,0.7,2.4,1.4,3.4,2.1c25.4,14.7,56.2,6,72.2-18.9l27.9,16l-18.5-65.7
		c-0.6-2.8-3.4-4.3-6-3.6l-60.6,20.2l29.7,17.2c-0.7,2-1.5,4-2.5,6.1C356.7,457.2,338.4,467,320.2,465.3z"/>
</g>
</svg>
