<?xml version="1.0" encoding="utf-8"?>
<!-- Generator: Adobe Illustrator 19.0.0, SVG Export Plug-In . SVG Version: 6.00 Build 0)  -->
<svg version="1.1" id="Capa_1" xmlns="http://www.w3.org/2000/svg" xmlns:xlink="http://www.w3.org/1999/xlink" x="0px" y="0px"
	 viewBox="0 0 500 300" style="enable-background:new 0 0 500 300;" xml:space="preserve">
<style type="text/css">
	.st0{fill:#0000CE;}
	.st1{fill:#FFFFFF;}
</style>
<path id="XMLID_58_" class="st0" d="M312.9,261.8c-0.8-0.8-1.8-1.5-3-2c-1.1-0.5-2.3-0.8-3.6-0.8s-2.5,0.3-3.6,0.8
	c-1.1,0.5-2.1,1.2-3,2s-1.5,1.8-2,3c-0.5,1.1-0.7,2.3-0.7,3.6s0.2,2.5,0.7,3.6c0.5,1.1,1.1,2.1,2,3s1.8,1.5,3,2
	c1.1,0.5,2.3,0.7,3.6,0.7s2.5-0.2,3.6-0.7c1.1-0.5,2.1-1.1,3-2s1.5-1.8,2-3c0.5-1.1,0.8-2.3,0.8-3.6s-0.3-2.5-0.8-3.6
	C314.4,263.6,313.7,262.7,312.9,261.8z"/>
<path id="XMLID_59_" class="st0" d="M278.9,242.7c-0.7-0.9-1.6-1.9-2.8-2.5c-1.2-0.6-2.7-1.2-4.6-1.2H264v18h7.4
	c1.8,0,3.3-0.2,4.5-0.8c1.2-0.6,2.2-1.3,2.9-2.3c0.7-0.9,1.2-1.9,1.5-2.9c0.3-1,0.4-1.9,0.4-2.8c0-0.8-0.1-1.7-0.4-2.7
	C280.1,244.6,279.6,243.6,278.9,242.7z"/>
<path id="XMLID_60_" class="st0" d="M198.2,263.5c1.2-0.5,2.4-0.9,3.4-1.3c-0.6-1.1-1.4-1.8-2.6-2.3c-1.2-0.5-2.3-0.8-3.4-0.8
	c-1.3,0-2.5,0.3-3.7,0.8s-2.1,1.2-3,2c-0.8,0.8-1.6,1.8-2.1,2.9c-0.5,1.1-0.9,2.2-0.9,3.3v0.3c1-0.5,2.6-1,4-1.5
	c1.4-0.6,2.8-1.1,4.2-1.7C195.5,264.5,196.9,264,198.2,263.5z"/>
<path id="XMLID_61_" class="st0" d="M121.3,169.9c-6,0-10.9,4.9-10.9,10.8c0,1.6,0.4,3.1,1,4.5c0.8-0.1,1.7-0.2,2.6-0.2
	c2.8,0,5.4,0.7,7.7,2c2-4.3,5.5-7.9,9.8-10C129.9,172.9,126,169.9,121.3,169.9z"/>
<path id="XMLID_62_" class="st0" d="M158.4,259c-1.4,0-2.7,0.2-3.8,0.7c-1.2,0.5-2.1,1.1-3,1.9c-0.8,0.8-1.5,1.8-2,3
	c-0.5,1.1-0.7,2.3-0.7,3.6c0,1.3,0.2,2.6,0.7,3.7c0.5,1.2,1.1,2.1,2,3c0.8,0.8,1.8,1.5,3,2c1.2,0.5,2.4,0.7,3.8,0.7
	c1.4,0,2.6-0.2,3.7-0.7c1.1-0.5,2-1.2,2.8-2c0.7-0.9,1.3-1.9,1.7-3c0.4-1.1,0.6-2.3,0.6-3.6c0-2.7-0.8-4.9-2.3-6.7
	C163.3,259.9,161.1,259,158.4,259z"/>
<path id="XMLID_63_" class="st0" d="M132.6,174.9c0.5,0.4,1,0.7,1.6,0.9c1.3-0.4,2.7-0.8,4.1-0.9c-0.2-1.2-0.3-2.4-0.3-3.6
	c0-5.4,2-10.4,5.3-14.1c-1.4-0.7-3-1.1-4.7-1.1c-5.7,0-10.4,4.7-10.4,10.4c0,0.9,0.1,1.8,0.4,2.7
	C130.4,170.7,131.7,172.7,132.6,174.9z"/>
<path id="XMLID_65_" class="st0" d="M391.9,263.5c1.2-0.5,2.4-0.9,3.4-1.3c-0.6-1.1-1.4-1.8-2.6-2.3c-1.2-0.5-2.3-0.8-3.4-0.8
	c-1.3,0-2.5,0.3-3.7,0.8s-2.1,1.2-3,2c-0.8,0.8-1.5,1.8-2,2.9s-0.7,2.2-0.7,3.3v0.3c1-0.5,2.5-1,3.9-1.5c1.4-0.6,2.7-1.1,4.1-1.7
	S390.7,264,391.9,263.5z"/>
<path id="XMLID_66_" class="st0" d="M378.1,169.2c0.2-0.9,0.4-1.8,0.4-2.7c0-5.7-4.7-10.4-10.4-10.4c-1.7,0-3.3,0.4-4.7,1.1
	c3.3,3.8,5.3,8.7,5.3,14.1c0,1.2-0.1,2.4-0.3,3.6c1.4,0.2,2.8,0.5,4.1,0.9c0.6-0.3,1.1-0.6,1.6-0.9
	C375,172.7,376.3,170.7,378.1,169.2z"/>
<path id="XMLID_67_" class="st0" d="M385.4,169.9c-4.7,0-8.6,3-10.2,7.1c4.3,2.1,7.7,5.7,9.8,10c2.3-1.2,4.9-2,7.7-2
	c0.9,0,1.7,0.1,2.6,0.2c0.6-1.4,1-2.9,1-4.5C396.2,174.8,391.4,169.9,385.4,169.9z"/>
<path id="XMLID_70_" class="st0" d="M457.5,0h-415C19,0,0,19,0,42.5v215C0,281,19,300,42.5,300h415c23.5,0,42.5-19,42.5-42.5v-215
	C500,19,481,0,457.5,0z M318.5,65.7c1.4,13.8-2.6,22.9-8,28.5c-0.3,2.5-0.7,4.7-1,6.5c2.8-1.2,5.1-2.8,6.8-4.3
	c2.5-2.2,3.8-4.4,3.9-4.4h0l5.8-8.4v10.1c0,8.8-2.3,18-5,26.5c-2.6,2.6-5.6,5.2-9.2,7.7c3.2-7.9,6.2-17.3,7.5-26.2
	c-3.1,2.5-7.4,5-13,6.1l-4.5,0.9l1-4.5c0,0,0-0.2,0.1-0.5c0.1-0.4,0.2-0.9,0.3-1.6c0.2-0.8,0.3-1.8,0.5-2.9
	c-5.9,3.1-11.8,3.2-13.4,1.5c2.5-1.2,4.7-2.6,6.8-4c12.4-8.3,17.6-18.8,19.8-25.2C318.2,68.1,318.5,65.7,318.5,65.7z M282.3,207.8
	c0.9,3.9-1.5,7.8-5.4,8.8c-3.9,0.9-7.8-1.5-8.8-5.4l-6.9-28.9c-5.1,1.5-9.2,1.3-10.4-0.1c1.6-0.8,3.1-1.6,4.6-2.4
	c20.2-11.1,28.9-25.9,32.2-33.4c1.3-2.9,1.7-4.7,1.7-4.7c-0.8,16.2-7.4,26.8-14.9,33.2L282.3,207.8z M283.7,134.7
	c-0.9,1-2.1,1.5-3.5,1.5c-0.1,0-0.1,0-0.2,0c-1.4-0.1-2.8-0.7-3.6-1.8l-7.4-9.3v27.9c0,0.1,0.1,0.3,0.1,0.4l2.6,10.5
	c-3.5,3.3-7.6,6.9-12.6,10l-3.8-15.9h-3.8l-8.9,37c-5.1-1.9-9.5-4.3-13.4-6.7l8.1-34.9c0-0.1-0.2-0.3-0.2-0.5v-16.6
	c-1-1.3-3.5-2.7-5.2-4.4l-1.8,2.4c-0.9,1.1-2.1,1.7-3.5,1.8c-0.1,0-0.1,0-0.2,0c-1.3,0-2.5-0.5-3.4-1.5l-14.3-15.5
	c-1.8-1.9-1.6-4.9,0.3-6.7c1.9-1.8,4.9-1.6,6.7,0.3l9.6,10.4c-2.9-5.1-5.2-11.4-6.2-19.2c0,0,0.6,1.7,2.1,4.5
	c3.9,7.1,13.8,21.2,34.8,30.6c2.7,0,4.6-0.6,5.3-1.5c-14-5.3-23.7-12.8-30.1-19.6l6.2-7.9l0,0c0.8-1,2-1.6,3.2-1.8
	c2.4,4.6,7.2,7.8,12.8,7.8c5.6,0,10.4-3.2,12.8-7.8c1.2,0.1,2.4,0.7,3.2,1.8l1.9,2.5c-2.5,3.5-5.9,7.1-10.6,10.6
	c0.5,0.4,1.7,0.4,3.2,0c10.4-8.7,13.8-18.2,14.8-22.9c0.4-1.8,0.5-2.9,0.5-2.9c1.3,8.9-0.9,15.5-4.2,20l5.4,6.9l10.6-11.4
	c1.8-1.9,4.7-2,6.7-0.3c1.9,1.8,2,4.7,0.3,6.7L283.7,134.7z M225.8,65.4c0,0,0.5,1,1.7,2.5c2.9,3.8,10,11,23.1,14.5
	c1,0.3,1.9,0.5,3,0.7C252,86.1,232.2,86.6,225.8,65.4z M266.6,101.7c0,7.3-5.9,13.2-13.2,13.2c-7.3,0-13.2-5.9-13.2-13.2
	c0-7.3,5.9-13.2,13.2-13.2C260.7,88.4,266.6,94.4,266.6,101.7z M297,39.5c1.6,11.9-1.3,20.7-5.7,26.8c0.5,2.7,0.9,5.2,1.1,7.3
	c1.7-1.9,3.2-4.4,4.5-6.8c2.4-4.3,4-8.7,4.6-10.3c0.2-0.5,0.2-0.7,0.2-0.7l2.2-6.8l3.2,6.3c3.2,6.2,4.2,13.8,4.4,21.2
	c-1.6,2.4-3.6,5.1-6,7.7c0.1-1.8,0.2-3.6,0.2-5.5c0-4.7-0.4-9.5-1.4-13.8c-0.4,0.8-0.8,1.7-1.2,2.5c-2.7,5.3-6.4,11.4-11.8,14.6
	l-4.3,2.5l-0.1-5c0,0,0-0.3,0-1c0-0.6-0.1-1.6-0.2-2.8c-0.1-1.2-0.3-2.6-0.5-4.1c-5.8,5-12,6.5-13.7,5.2c1.1-0.8,2.2-1.7,3.3-2.5
	c14.3-11.7,19-24.7,20.5-31C296.8,40.9,297,39.5,297,39.5z M267.8,20.6c0.6,3.6,0.6,6.9,0.2,9.8c4.6,3.1,8.9,6.6,12.2,10.4
	c3.9,4.5,6.6,9.9,8.4,15.3c-1.2,2-2.6,4-4.3,6.1c-1.7-6.2-4.4-12.8-8.5-17.5c-2.5-2.8-5.8-5.6-9.4-8.3c-4.1,10-13.7,13.7-15.6,12.3
	c0.8-0.6,1.6-1.3,2.3-2c10.2-8.9,13.3-18.5,14.2-23.2C267.7,21.7,267.8,20.6,267.8,20.6z M238,14.5c0.1,0,7.3,2.9,16.2,7.6
	c3.3,1.8,6.8,3.8,10.3,6c-0.7,1.6-1.5,3.4-2.6,5.3c-2.4-1.5-4.8-3-7.2-4.3c-3.9-2.2-7.6-4-10.7-5.5c1,2.3,1.5,4.5,1.5,6.7
	c0,3.7-1.8,7-4.8,9.5c-1.9,1.6-4.2,2.9-7,4.2c-1.1-1.8-2.1-3.5-2.9-5.1c2.7-1.2,4.7-2.4,6.1-3.6c2-1.8,2.6-3.1,2.7-5
	c0.1-2.4-1.5-6.3-5.1-11.4l-5.6-8L238,14.5z M199.6,55.3l3.2-6.3l2.2,6.8c0,0,0.1,0.2,0.2,0.7c0.2,0.5,0.4,1.2,0.7,2
	c0.7,1.7,1.6,4,2.9,6.4c1.1,2.2,2.4,4.5,3.9,6.5c-0.1-1.5-0.2-3.2-0.2-5c0-4.7,0.5-9.9,2.5-14.7c1.8-4.5,5.1-8.6,10.2-10.7
	c-1-4.4-1.2-9.4-0.3-15.2c0,0,0.1,1.5,0.6,3.9c1.4,6.4,5.9,19.4,20,31.3c1,0.9,2.1,1.7,3.2,2.6c-2.7,2-16.1-3-21.8-16.9
	c-3.1,1.5-5.1,4-6.5,7.3c-1.5,3.7-2.1,8.3-2.1,12.5c0,5.9,1,11.1,1.3,12.2c0,0.2,0,0.2,0,0.2l1.5,6.6l-5.9-3.4
	c-5.4-3.2-9.1-9.3-11.8-14.6c-0.4-0.9-0.8-1.7-1.2-2.5c-0.8,3.5-1.2,7.3-1.3,11.1c-2.2-2.5-3.9-4.9-5.4-7.1
	C196.3,64.2,197.5,59.5,199.6,55.3z M181,83.6l5.4,8.6h0c0,0,0,0,0,0c0,0,0.1,0.1,0.2,0.2c0.1,0.2,0.4,0.5,0.7,0.9
	c0.6,0.8,1.6,1.8,2.8,2.9c1.8,1.5,4.1,3.2,7,4.4c-0.7-3.7-1.5-9.3-1.9-15.5c-4.5-5.7-7.5-14.2-6.3-26.5c0,0,0.3,2.3,1.5,5.9
	c2.2,6.4,7.4,16.8,19.8,25.2c2.1,1.4,4.3,2.7,6.8,4c-1.8,1.8-8.8,1.6-15.4-2.7c0.7,6.3,1.7,11.1,2,12.7c0.1,0.4,0.1,0.5,0.1,0.5
	l1,4.5l-4.5-0.9c-5.6-1.1-9.9-3.7-13-6.1c1.1,8,3.7,16.4,6.5,23.7c0.9,2.3,1.8,4.5,2.7,6.6c-3.8-2.6-6.9-5.4-9.6-8.1
	c-3.4-9.4-6.2-20.1-6.2-30.2V83.6z M96.9,275.2c-0.8,1.9-2.1,3.5-3.8,4.8c-1.7,1.3-3.8,2.4-6.4,3.1c-2.6,0.7-5.6,1.1-9,1.1
	c-2.1,0-4-0.1-5.8-0.4c-1.7-0.3-3.3-0.6-4.6-1.1c-1.4-0.4-2.6-0.9-3.6-1.4c-1.1-0.5-2-1-2.7-1.5l3.8-7.7c2,1.1,4.2,2,6.5,2.6
	c2.3,0.6,4.3,0.9,6.1,0.9c0.9,0,2-0.1,3.3-0.3c1.4-0.2,2.7-0.6,4-1.1s2.4-1.2,3.3-2.2c0.9-0.9,1.4-2.1,1.4-3.5
	c0-1.7-0.6-3.1-1.9-4.1c-1.3-1.1-2.9-2-4.8-2.9c-1.9-0.8-4-1.7-6.2-2.5c-2.2-0.8-4.3-1.8-6.2-2.9c-1.9-1.1-3.5-2.5-4.8-4.2
	c-1.3-1.7-1.9-3.8-1.9-6.3c0-1.8,0.4-3.6,1.1-5.4c0.7-1.8,1.8-3.3,3.3-4.7c1.5-1.4,3.3-2.5,5.5-3.4c2.2-0.9,4.8-1.3,7.7-1.3
	c1.9,0,3.7,0.2,5.4,0.5c1.8,0.3,3.3,0.7,4.7,1c1.4,0.4,2.5,0.8,3.5,1.1c0.9,0.4,1.5,0.6,1.7,0.6l-3.2,7.2c-2-0.7-4-1.3-6-1.7
	c-2-0.4-3.8-0.6-5.5-0.6c-2.9,0-5.2,0.6-6.9,1.7c-1.7,1.2-2.6,2.6-2.6,4.4c0,1.5,0.6,2.8,1.9,3.7c1.3,1,2.9,1.8,4.8,2.6
	c1.9,0.8,4,1.5,6.2,2.3s4.3,1.8,6.2,3.1c1.9,1.2,3.5,2.8,4.8,4.8c1.3,1.9,1.9,4.4,1.9,7.3C98.2,271.2,97.7,273.3,96.9,275.2z
	 M110,295h7H110z M133,284h-5.3l-0.9-8.3c-1.1,2.4-2.6,4.6-4.6,6.2c-1.9,1.6-4.5,2.5-7.7,2.5s-5.7-0.8-7.6-2.5c-1.8-1.7-3-3.8-3-6.6
	V253h7v19.1c0,1.5,0.6,2.7,1.6,3.8s2.4,1.6,4.5,1.7c1.4,0,2.7-0.2,3.8-0.7c1.2-0.5,2.2-1.2,3-2c0.8-0.9,1.7-1.9,2.2-3.1
	c0.5-1.2,0.9-2.5,0.9-3.9V253h6V284z M130.5,214.7c-6.5-3.7-10.8-10.6-10.8-18.6c0-2.7,0.5-5.3,1.4-7.7c-0.6-0.1-1.2-0.1-1.8-0.1
	c-8.6,0-15.6,7-15.6,15.6c0,5.6,2.9,10.5,7.3,13.2c-7.5-1.4-13.2-8-13.2-15.9c0-6.7,4.1-12.5,9.9-14.9c-1.1-2-1.8-4.3-1.8-6.7
	c0-7.5,6.1-13.7,13.7-13.7c1.5,0,3,0.3,4.3,0.7c0-0.4-0.1-0.8-0.1-1.3c0-7.2,5.9-13.1,13.1-13.1c3.1,0,6,1.1,8.3,2.9
	c2.3-2,5.1-3.5,8.1-4.4c-0.1-0.7-0.1-1.5-0.1-2.3c0-8.8,5.1-16.3,12.6-19.8l-1.2-4.9l4,3.8c2.1-0.6,4.3-1,6.6-1
	c1.8,0,3.5,0.2,5.1,0.6c-2.8-4.8-4.8-10.8-5.5-18.3c0,0,0.5,1.5,1.7,4c3.2,6.4,11.3,19,29.4,27.9c1.3,0.7,2.7,1.3,4.1,1.9
	c-0.9,1.1-3.9,1.5-7.8,0.8c0.6,1.2,1.1,2.1,1.5,2.8c0.5,0.9,0.7,1.3,0.7,1.3l3.3,5.6l-6.2-1.2l-0.1,0c-0.2-0.1-13.5-2.5-25.9-10.8
	c4.9,12.6,13.1,22.9,18.8,29.1c0.3,0.3,0.5,0.6,0.8,0.9c-5.7-2.6-10.5-5.6-14.6-8.6c-5.1-7.3-10.2-16.5-13-26.9
	c-2.2,1.5-4.1,3.3-5.7,5.5c-0.2-0.3-0.2-0.5-0.2-0.5c0,0.2,0.1,0.4,0.1,0.6c-1.8,2.6-3.1,5.5-3.7,8.7c0.4,0,0.8,0,1.2,0
	c1.2,0,2.4,0.1,3.6,0.3c-0.6-1.9-1.1-3.9-1.5-6.1c0,0,9.2,21.7,39.4,32.9c0.2,0,0.4,0,0.5,0l0.5,0.4c1.3,0.5,2.6,0.9,3.9,1.3
	c-0.6,0.9-2.2,1.6-4.5,1.8c-0.3,0.4-1.3,1.8-3.3,3.3c-2.1,1.6-5.5,3.3-9.7,3.3c-1.1,0-2.2-0.1-3.3-0.3c1.2,2.5,2.6,4.8,4.2,6.8
	c-3.5-1.3-6.7-2.7-9.5-4.3c-0.4-0.9-0.9-1.9-1.2-2.9c-0.5-1.2-0.9-2.4-1.2-3.7l-1.7-6.5l5.9,3.1c0.2,0.1,0.3,0.2,0.5,0.2
	c2.5,1.2,4.6,1.7,6.4,1.7c2,0,3.6-0.6,4.9-1.3c-3.3-0.7-7-2-10.7-4.2c-6.4-3.7-12.8-9.8-17-19.2c-0.4,0-0.8,0-1.2,0
	c-10.1,0-18.3,8.2-18.3,18.3c0,0.1,0,0.2,0,0.3c2.9,0.6,5.5,1.8,7.8,3.5c-1.8-0.5-3.8-0.8-5.8-0.8c-11.8,0-21.4,9.6-21.4,21.4
	c0,7.1,3.4,13.3,8.7,17.2C133.4,216.1,131.9,215.5,130.5,214.7z M177.4,160.1c-3-2.5-5.5-5-7.5-7.3
	C173,154.6,175.6,157.1,177.4,160.1z M173.5,274.8c-0.8,1.9-1.9,3.6-3.3,5.1c-1.4,1.4-3.1,2.6-5.1,3.3c-2,0.8-4.1,1.2-6.5,1.2
	c-2.4,0-4.4-0.4-6.2-1.3c-1.8-0.9-3-1.8-3.7-2.8c0,0.2,0.1,0.4,0.1,0.5c0,0.2,0.1,0.4,0.1,0.6V298h-7v-45h6.6c0,1,0,1.4,0.1,2
	c0.1,0.7,0.1,1.3,0.1,1.9c0.4-0.5,0.9-1,1.5-1.5c0.6-0.6,1.3-1.1,2.2-1.5c0.9-0.5,1.8-0.8,2.9-1.1c1.1-0.3,2.3-0.5,3.6-0.5
	c2.4,0,4.5,0.4,6.4,1.1c1.9,0.7,3.6,1.8,4.9,3.2c1.4,1.4,2.4,3.1,3.2,5.1c0.8,2,1.2,4.2,1.2,6.7
	C174.7,270.8,174.3,272.9,173.5,274.8z M190.7,276.3c1.4,0.9,3.1,1.4,4.9,1.4c1.2,0,2.5-0.2,3.8-0.7c1.3-0.5,2.3-1.1,3.1-1.8l5.1,5
	c-1.5,1.3-3.3,2.4-5.4,3.2c-2.1,0.8-4.3,1.2-6.5,1.2c-2.3,0-4.4-0.4-6.4-1.3c-2-0.8-3.7-2-5.2-3.5c-1.5-1.5-2.6-3.2-3.5-5.1
	c-0.9-1.9-1.3-4-1.3-6.2s0.4-4.3,1.3-6.2c0.9-1.9,2-3.6,3.5-5.1c1.5-1.5,3.2-2.6,5.1-3.5c1.9-0.8,4-1.3,6.2-1.3c3.5,0,6.5,1,9.1,3.1
	c2.6,2.1,4.5,4.8,5.6,8.2c-1.4,0.5-3.1,1.2-5,1.9c-1.9,0.7-3.9,1.5-5.9,2.3c-2.1,0.8-4.1,1.6-6.2,2.5c-2.1,0.8-4,1.6-5.7,2.3
	C188.1,274.2,189.2,275.4,190.7,276.3z M203.8,205.5c2.1,1.1,3.6,1.7,4.2,1.9c0.1,0.1,0.2,0.1,0.2,0.1l2.8,0.9l-1.9,5.6l-2.8-0.9
	c-0.2-0.1-5.9-2-12.4-6.7c-0.6-0.4-1.1-0.8-1.7-1.3c-7.1-1.5-15.1-5.2-21.9-12.9c-3.3-3.7-6.4-8.4-8.9-14.2c0,0,13.6,19,45.3,23.4
	c1.7,0.2,3.4,0.4,5.1,0.6C211.2,203.5,208.2,204.9,203.8,205.5z M232.6,261.2c-1.3,0-2.6,0.2-3.9,0.5c-1.2,0.3-2.3,0.9-3.2,1.5
	c-0.9,0.7-1.9,1.6-2.5,2.6c-0.6,1-1,2.2-1,3.6V284h-7v-31h6.5c0.1,2,0.2,3.2,0.3,4.2c0.1,1.1,0.2,2.3,0.3,3.7
	c0.6-1.3,1.5-2.5,2.5-3.6c1.1-1.1,2.1-2,3.3-2.7c1.1-0.7,2.2-1.3,3.3-1.7c1.1-0.4,2-0.6,2.8-0.6L232.6,261.2z M240.3,203.9l-1.7,7.3
	c-0.9,3.9-4.9,6.3-8.8,5.4c-3.9-0.9-6.3-4.9-5.4-8.8l2.3-9.5c-7.6-4.9-14.7-13.4-18.5-26.9c0,0,0.9,1.6,2.7,4.1
	c4.9,6.5,16.7,19,38.9,25.2c1.6,0.5,3.3,0.9,5,1.3C253.7,204,247.8,205.3,240.3,203.9z M288.6,254.4c-0.6,2.1-1.6,4-3.1,5.6
	c-1.4,1.7-3.3,3.2-5.5,4.2c-2.3,1-5,1.8-8.4,1.8H264v18h-8v-53h14.4c2.9,0,5.5,0.5,7.9,1.2c2.4,0.8,4.4,1.9,6,3.4
	c1.7,1.4,2.9,3.2,3.9,5.4c0.9,2.1,1.4,4.5,1.4,7.1C289.5,250.2,289.2,252.3,288.6,254.4z M321.4,274.6c-0.8,2-1.9,3.7-3.3,5.1
	c-1.4,1.5-3.1,2.6-5.1,3.5c-2,0.8-4.1,1.3-6.5,1.3c-2.3,0-4.4-0.4-6.3-1.2c-2-0.8-3.7-1.9-5.1-3.3c-1.5-1.4-2.6-3.1-3.5-5.1
	c-0.9-2-1.3-4.2-1.3-6.6c0-2.2,0.4-4.3,1.3-6.2c0.8-1.9,2-3.6,3.5-5.1c1.5-1.4,3.2-2.6,5.2-3.4c2-0.8,4.1-1.3,6.4-1.3
	c2.3,0,4.4,0.4,6.4,1.3c2,0.8,3.7,2,5.1,3.4c1.4,1.4,2.5,3.1,3.3,5.1c0.8,1.9,1.2,4,1.2,6.2C322.6,270.5,322.2,272.6,321.4,274.6z
	 M356.9,285.4c-0.9-1.8-1.7-3.6-2.4-5.3c-0.7-1.8-1.4-3.5-2.2-5.2c-0.7-1.7-1.5-3.5-2.2-5.2c-0.7-1.8-1.6-3.5-2.5-5.4
	c-1.6,3.6-3.2,7.2-4.6,10.6c-1.5,3.4-3,6.9-4.6,10.6L324.7,253h6.9c1.3,3,2.4,5.7,3.2,7.6c0.8,1.9,1.5,3.6,1.9,4.9
	c0.5,1.3,0.8,2.5,1.1,3.6c0.2,1,0.5,2.2,0.6,3.5c0.1-0.4,0.3-0.9,0.5-1.5c0.2-0.6,0.5-1.4,1-2.5s1-2.5,1.8-4.2
	c0.8-1.8,1.8-4.1,3-6.8l-2.1-4.5h6c1.4,3,2.6,5.8,3.6,8c1,2.2,1.8,4.1,2.4,5.6c0.6,1.5,1.1,2.7,1.5,3.7c0.4,0.9,0.6,1.7,0.8,2.3
	c0.2-1.3,0.4-2.5,0.8-3.5c0.3-1.1,0.8-2.3,1.3-3.6s1.3-3,2.2-4.9c0.9-1.9,2-4.5,3.3-7.5h6.9L356.9,285.4z M384.4,276.3
	c1.4,0.9,3.1,1.4,4.9,1.4c1.2,0,2.5-0.2,3.8-0.7c1.3-0.5,2.3-1.1,3.1-1.8l5.1,5c-1.5,1.3-3.3,2.4-5.4,3.2c-2.1,0.8-4.3,1.2-6.5,1.2
	c-2.3,0-4.4-0.4-6.4-1.3c-2-0.8-3.7-2-5.2-3.5c-1.5-1.5-2.6-3.2-3.5-5.1c-0.9-1.9-1.3-4-1.3-6.2s0.4-4.3,1.3-6.2
	c0.9-1.9,2-3.6,3.5-5.1c1.5-1.5,3.2-2.6,5.1-3.5s4-1.3,6.2-1.3c3.5,0,6.5,1,9.1,3.1c2.6,2.1,4.5,4.8,5.6,8.2c-1.4,0.5-3.1,1.2-5,1.9
	c-1.9,0.7-3.9,1.5-5.9,2.3c-2.1,0.8-4.1,1.6-6.2,2.5c-2.1,0.8-4,1.6-5.7,2.3C381.9,274.2,383,275.4,384.4,276.3z M395.6,217.1
	c4.4-2.7,7.3-7.6,7.3-13.2c0-8.6-7-15.6-15.6-15.6c-0.6,0-1.2,0-1.8,0.1c0.9,2.4,1.4,5,1.4,7.7c0,8-4.4,14.9-10.8,18.6
	c-1.4,0.8-2.9,1.4-4.5,1.9c5.3-3.9,8.7-10.2,8.7-17.2c0-11.8-9.6-21.4-21.4-21.4c-2,0-3.9,0.3-5.8,0.8c2.3-1.7,4.9-2.9,7.8-3.5
	c0-0.1,0-0.2,0-0.3c0-10.1-8.2-18.3-18.3-18.3c-1.2,0-2.3,0.1-3.5,0.3c-4.5,8.9-10.4,14.7-16.4,18.5c-3.2,2-6.4,3.4-9.6,4.3
	c1.4,0.8,3.1,1.5,5.4,1.5c1.7,0,3.8-0.4,6.4-1.7c0.2-0.1,0.3-0.2,0.5-0.2l5.9-3.1l-1.7,6.5c-0.3,1.3-0.8,2.5-1.2,3.7
	c-3.5,9.3-9.9,15.7-15.7,19.9c-6.5,4.7-12.2,6.6-12.4,6.7l-2.8,0.9l-1.9-5.6l2.8-0.9c0,0,0,0,0.2-0.1c0.1,0,0.3-0.1,0.6-0.2
	c0.6-0.2,1.4-0.6,2.4-1c2-1,4.7-2.4,7.6-4.5c4.6-3.3,9.5-8.1,12.6-14.7c-1.2,0.2-2.3,0.3-3.3,0.3c-4.3,0-7.6-1.7-9.7-3.3
	c-1.4-1.1-2.4-2.1-2.9-2.7c-7.9,0.7-14.1-1.3-15-3.5c1.8-0.2,3.5-0.4,5.2-0.7c22.9-3.6,36.2-14.8,41.9-20.7c1-1.6,1.9-3.4,2.7-5.3
	c2.1-0.7,4.3-1.1,6.6-1.1c0.4,0,0.8,0,1.2,0c-1.1-6-4.6-11.1-9.4-14.3c-2.8,10.5-8,19.7-13.1,27.1c-3.5,2.2-7.6,4.3-12.4,6.1
	c1.3-1.4,2.7-3.1,4.1-4.9c4.8-6,9.9-13.9,13.4-22.9c-12.4,8.3-25.6,10.7-25.8,10.8l-0.1,0l-6.2,1.2l3.3-5.6c0,0,0.3-0.4,0.7-1.3
	c0.5-0.9,1.2-2.1,2-3.7c0,0,0-0.1,0-0.1c-6.4,1.8-11.6,1.3-12.8-0.4c1.7-0.6,3.3-1.3,4.8-2c21.2-9.3,31.3-23.5,35.2-30.6
	c1.5-2.8,2.2-4.5,2.2-4.5c-1.3,9.4-4.4,16.8-8.3,22.4c1.7-0.4,3.6-0.7,5.4-0.7c2.3,0,4.5,0.4,6.6,1l4-3.8l-1.2,4.9
	c7.4,3.5,12.6,11.1,12.6,19.8c0,0.8,0,1.5-0.1,2.3c3,0.9,5.8,2.4,8.1,4.4c2.3-1.8,5.1-2.9,8.3-2.9c7.2,0,13.1,5.9,13.1,13.1
	c0,0.4,0,0.9-0.1,1.3c1.4-0.5,2.8-0.7,4.3-0.7c7.5,0,13.7,6.1,13.7,13.7c0,2.5-0.6,4.7-1.8,6.7c5.8,2.4,9.9,8.2,9.9,14.9
	C408.8,209.1,403.1,215.7,395.6,217.1z M328.8,161c2.4-4.3,6.3-7.7,10.9-9.5C337.7,153.7,334.1,157.3,328.8,161z M426.3,261.2
	c-1.3,0-2.6,0.2-3.9,0.5c-1.2,0.3-2.3,0.9-3.2,1.5c-0.9,0.7-1.8,1.6-2.3,2.6c-0.6,1-0.9,2.2-0.9,3.6V284h-7v-31h6.3
	c0.1,2,0.2,3.2,0.3,4.2c0.1,1.1,0.2,2.3,0.3,3.7c0.6-1.3,1.5-2.5,2.5-3.6c1.1-1.1,2.1-2,3.3-2.7c1.1-0.7,2.2-1.3,3.3-1.7
	c1.1-0.4,2-0.6,2.8-0.6L426.3,261.2z M450.4,278.7c-0.5,1.2-1.2,2.1-2.2,3c-0.9,0.8-2.1,1.5-3.3,1.9c-1.3,0.5-2.8,0.7-4.4,0.7
	c-2,0-3.9-0.3-5.7-1c-1.8-0.7-3.3-1.6-4.4-2.9c0.3-0.4,0.7-0.9,1.2-1.4c0.5-0.6,0.9-1.1,1.4-1.7c0.4-0.5,1-1.2,1.6-1.9
	c0,0,0.2,0,0.5,0.3c0.3,0.2,0.7,0.5,1.3,0.8c0.5,0.3,1.2,0.6,1.9,0.8c0.7,0.2,1.5,0.4,2.2,0.4c1.2,0,2.1-0.3,2.8-0.8
	c0.6-0.5,1-1.2,1-1.9c0-0.8-0.3-1.4-1-1.9c-0.6-0.5-1.4-0.9-2.4-1.3c-0.9-0.4-2-0.9-3.1-1.3c-1.1-0.5-2.2-1.1-3.1-1.8
	c-0.9-0.7-1.7-1.6-2.4-2.8c-0.6-1.1-1-2.6-1-4.3c0-1.7,0.3-3.2,0.9-4.3c0.6-1.2,1.4-2.1,2.4-2.8c1-0.7,2.1-1.2,3.2-1.5
	c1.2-0.3,2.3-0.5,3.4-0.5c1.5,0,3,0.3,4.6,0.9c1.6,0.6,3,1.5,4.1,2.6c-0.3,0.4-0.6,0.9-1,1.5c-0.4,0.6-0.8,1.1-1.2,1.5
	c-0.4,0.5-0.8,1.1-1.4,1.8c-0.5-0.3-0.9-0.6-1.4-0.8c-0.5-0.2-1-0.4-1.6-0.5c-0.6-0.2-1.2-0.3-1.8-0.3c-0.7,0-1.4,0.2-2.1,0.5
	c-0.7,0.3-1.1,0.9-1.1,1.9c0,0.8,0.3,1.5,1,2.1c0.6,0.6,1.4,1.1,2.4,1.5c0.9,0.5,2,0.9,3.1,1.4c1.1,0.5,2.2,1.1,3.1,1.8
	c0.9,0.7,1.7,1.6,2.4,2.7c0.6,1.1,1,2.4,1,4C451.2,276.3,450.9,277.5,450.4,278.7z"/>
<path id="XMLID_109_" class="st1" d="M239.6,30.3c0,1.9-0.6,3.2-2.7,5c-1.4,1.2-3.4,2.4-6.1,3.6c0.8,1.6,1.8,3.4,2.9,5.1
	c2.8-1.3,5.1-2.6,7-4.2c3-2.5,4.8-5.8,4.8-9.5c0-2.2-0.6-4.4-1.5-6.7c3.1,1.5,6.9,3.3,10.7,5.5c2.4,1.3,4.8,2.8,7.2,4.3
	c1.1-1.9,2-3.7,2.6-5.3c-3.5-2.2-7-4.2-10.3-6c-8.9-4.7-16.1-7.6-16.2-7.6l-9.1-3.6l5.6,8C238.1,24,239.7,27.9,239.6,30.3z"/>
<path id="XMLID_112_" class="st1" d="M210.9,175.6c-1.9-2.5-2.7-4.1-2.7-4.1c3.9,13.5,11,22,18.5,26.9l-2.3,9.5
	c-0.9,3.9,1.5,7.8,5.4,8.8c3.9,0.9,7.8-1.5,8.8-5.4l1.7-7.3c7.5,1.4,13.4,0.2,14.5-1.9c-1.7-0.4-3.4-0.8-5-1.3
	C227.6,194.5,215.8,182,210.9,175.6z"/>
<path id="XMLID_114_" class="st1" d="M161.4,178c2.5,5.8,5.6,10.4,8.9,14.2c6.8,7.7,14.8,11.4,21.9,12.9c0.6,0.4,1.1,0.9,1.7,1.3
	c6.5,4.7,12.2,6.6,12.4,6.7l2.8,0.9l1.9-5.6l-2.8-0.9c0,0,0,0-0.2-0.1c-0.5-0.2-2.1-0.8-4.2-1.9c4.4-0.6,7.4-2.1,7.9-3.6
	c-1.8-0.1-3.5-0.3-5.1-0.6C175,197,161.4,178,161.4,178z"/>
</svg>
