<?xml version="1.0" encoding="utf-8"?>
<!-- Generator: Adobe Illustrator 19.0.0, SVG Export Plug-In . SVG Version: 6.00 Build 0)  -->
<svg version="1.1" id="Capa_1" xmlns="http://www.w3.org/2000/svg" xmlns:xlink="http://www.w3.org/1999/xlink" x="0px" y="0px"
	 viewBox="0 0 500 300" style="enable-background:new 0 0 500 300;" xml:space="preserve">
<style type="text/css">
	.st0{fill:#20BC00;}
</style>
<path id="XMLID_45_" class="st0" d="M400.5,258.2c-0.8-0.8-1.8-1.5-3-1.9c-1.2-0.5-2.5-0.7-3.9-0.7c-1.4,0-2.7,0.2-3.8,0.7
	c-1.2,0.5-2.1,1.1-3,1.9c-0.8,0.8-1.5,1.8-1.9,3c-0.5,1.1-0.7,2.3-0.7,3.6c0,1.3,0.2,2.6,0.7,3.7c0.5,1.2,1.1,2.1,1.9,3
	c0.8,0.8,1.8,1.5,3,2c1.2,0.5,2.4,0.7,3.8,0.7c1.4,0,2.7-0.2,3.9-0.7c1.2-0.5,2.2-1.2,3-2c0.8-0.9,1.5-1.9,1.9-3
	c0.5-1.2,0.7-2.4,0.7-3.7s-0.2-2.5-0.7-3.6C402,259.9,401.3,259,400.5,258.2z"/>
<path id="XMLID_46_" class="st0" d="M166.4,259.9c1.2-0.5,2.4-0.9,3.4-1.3c-0.6-1.1-1.4-1.8-2.6-2.3c-1.2-0.5-2.3-0.8-3.4-0.8
	c-1.3,0-2.5,0.3-3.7,0.8s-2.1,1.2-3,2c-0.8,0.8-1.2,1.8-1.7,2.9c-0.5,1.1-0.5,2.2-0.5,3.3v0.3c1-0.5,2.2-1,3.6-1.5
	c1.4-0.6,2.6-1.1,4-1.7C164,261,165.1,260.4,166.4,259.9z"/>
<path id="XMLID_49_" class="st0" d="M320.2,92.3l0.9-4.7c0.9-2.8,0.9-6.8,0.9-12.4c0-28.2-29.2-32.2-32.9-32.2h-3.8l-2.8-1.6
	c-4.7-3.8-9.4-5.4-13.2-6.4h-37.6c-3.8,1-8.5,2.6-13.2,6.4l-2.8,1.6H212c-2.8,0-32.9,4-32.9,32.2c0,4.7,0.9,9.5,0.9,12.3l0.9,6.6
	l-2.8,3.8c-0.9,1.9-5.6,9.4-5.6,25.4l17.9,9.4c0,0,9.5-8.5,15.1-17.9c0,18.8,8.5,29.2,8.5,29.2c0,1.9,0,7.5,0,10.3
	c0,2.8-1,4.7-1,6.6c-0.9,3.8-1,5.7-1,10.4c0,5.6,7.5,14.6,18.8,22.6h43.3c11.3-8,18.8-17,18.8-22.6c0-4.7-1-6.6-1-10.4
	c0-1.9-1-3.8-1-6.6s0-8.5,0-10.3c0,0,5.7-9.4,7.5-29.2c1.9,2.8,4.7,16.9,15.1,17.9l15.1-10.3c0-16.9-3.8-23.5-5.6-26.3L320.2,92.3z
	 M218.6,122.4c0-2.8,1.9-8.4,6.6-8.4c5.6,0,16,0,16,0s7.5,0.9,8.5,6.6c0,2.8,0.9,7.5-0.9,9.4c-5.6,5.6-23.5,2.8-25.4,0.9
	C221.4,129,218.6,125.3,218.6,122.4z M248.7,182.6c-3.8,5.6-15.1,0-16.9-2.8c-1.9-2.8-6.6-8.5-6.6-14.1c0-3.8,0.9-6.6,4.7-7.5
	c4.7-0.9,13.2,0,13.2,0s6.6,0.9,6.6,9.4C249.7,171.3,250.6,180.8,248.7,182.6z M248.7,151.6c-4.7,5.6-20.7,1.9-22.6,0
	c-1.9-1.9-4.7-4.7-3.8-6.6c0-2.8,1.9-7.5,6.6-8.5c3.8-0.9,13.2,0,13.2,0s6.6,0.9,7.5,6.6C249.7,145.9,250.6,149.7,248.7,151.6z
	 M271.3,179.8c-1.9,2.8-13.2,8.5-16.9,2.8c-1.9-1.9-0.9-11.3-0.9-15.1c0-8.5,6.6-9.4,6.6-9.4s8.5-0.9,13.2,0
	c3.8,0.9,4.7,3.8,4.7,7.5C277.9,171.3,273.2,177,271.3,179.8z M276.9,151.6c-1.9,1.9-17.9,5.6-22.6,0c-1.9-1.9-0.9-5.6-0.9-8.5
	c0.9-5.6,7.5-6.6,7.5-6.6s9.4-0.9,13.2,0c4.7,0.9,6.6,5.6,6.6,8.5C281.6,146.9,278.8,149.7,276.9,151.6z M279.8,130.9
	c-1.9,1.9-19.8,4.7-25.4-0.9c-1.9-1.9-0.9-6.6-0.9-9.4c0.9-5.6,8.5-6.6,8.5-6.6s10.3,0,16,0c4.7,0,6.6,5.6,6.6,8.4
	C284.5,125.3,281.6,129,279.8,130.9z"/>
<path id="XMLID_57_" class="st0" d="M457.5,0h-415C19,0,0,19,0,42.5v215C0,281,19,300,42.5,300h415c23.5,0,42.5-19,42.5-42.5v-215
	C500,19,481,0,457.5,0z M65.1,271.6c-0.8,1.9-2.1,3.5-3.8,4.8c-1.7,1.3-3.8,2.4-6.4,3.1c-2.6,0.7-5.6,1.1-9,1.1
	c-2.1,0-4-0.1-5.8-0.4c-1.7-0.3-3.3-0.6-4.6-1.1c-1.4-0.4-2.6-0.9-3.6-1.4c-1.1-0.5-2-1-2.7-1.5l3.8-7.7c2,1.1,4.2,2,6.5,2.6
	c2.3,0.6,4.3,0.9,6.1,0.9c0.9,0,2-0.1,3.3-0.3c1.4-0.2,2.7-0.6,4-1.1s2.4-1.2,3.3-2.2c0.9-0.9,1.4-2.1,1.4-3.5
	c0-1.7-0.6-3.1-1.9-4.1c-1.3-1.1-2.9-2-4.8-2.9c-1.9-0.8-4-1.7-6.2-2.5c-2.2-0.8-4.3-1.8-6.2-2.9c-1.9-1.1-3.5-2.5-4.8-4.2
	c-1.3-1.7-1.9-3.8-1.9-6.3c0-1.8,0.4-3.6,1.1-5.4c0.7-1.8,1.8-3.3,3.3-4.7c1.5-1.4,3.3-2.5,5.5-3.4c2.2-0.9,4.8-1.3,7.7-1.3
	c1.9,0,3.7,0.2,5.4,0.5c1.8,0.3,3.3,0.7,4.7,1c1.4,0.4,2.5,0.8,3.5,1.1c0.9,0.4,1.5,0.6,1.7,0.6l-3.2,7.2c-2-0.7-4-1.3-6-1.7
	c-2-0.4-3.8-0.6-5.5-0.6c-2.9,0-5.2,0.6-6.9,1.7c-1.7,1.2-2.6,2.6-2.6,4.4c0,1.5,0.6,2.8,1.9,3.7c1.3,1,2.9,1.8,4.8,2.6
	c1.9,0.8,4,1.5,6.2,2.3s4.3,1.8,6.2,3.1c1.9,1.2,3.5,2.8,4.8,4.8c1.3,1.9,1.9,4.4,1.9,7.3C66.4,267.7,66,269.7,65.1,271.6z M102,281
	h-6.1l-0.9-8.6c-1.1,2.4-2.6,4.4-4.6,6c-1.9,1.6-4.5,2.4-7.7,2.4s-5.9-0.8-7.7-2.5c-1.8-1.7-3.1-3.9-3.1-6.6V250h7v18.5
	c0,1.5,0.7,2.7,1.7,3.8s2.5,1.6,4.6,1.7c1.4,0,2.7-0.2,3.8-0.7c1.2-0.5,2.2-1.2,3-2c0.8-0.9,1.6-1.9,2.1-3.1
	c0.5-1.2,0.8-2.5,0.8-3.9V250h7V281z M141.8,271.3c-0.8,1.9-1.9,3.6-3.3,5.1c-1.4,1.4-3.1,2.6-5.1,3.3c-2,0.8-4.1,1.2-6.5,1.2
	c-2.4,0-4.4-0.4-6.2-1.3c-1.8-0.9-3-1.8-3.7-2.8c0,0.2,0,0.4,0,0.5c0,0.2,0,0.4,0,0.6V295h-7v-45h6.8c0,0,0,1.1,0.1,1.8
	c0.1,0.7,0.1,1.2,0.1,1.7c0.4-0.5,0.9-1.1,1.5-1.6c0.6-0.6,1.3-1.1,2.2-1.5c0.9-0.5,1.8-0.9,2.9-1.2c1.1-0.3,2.3-0.5,3.6-0.5
	c2.4,0,4.5,0.4,6.4,1.1c1.9,0.7,3.6,1.8,4.9,3.2c1.4,1.4,2.4,3.1,3.2,5.1c0.8,2,1.2,4.2,1.2,6.7
	C142.9,267.2,142.5,269.3,141.8,271.3z M158.9,272.8c1.4,0.9,3.1,1.4,4.9,1.4c1.2,0,2.5-0.2,3.8-0.7c1.3-0.5,2.3-1.1,3.1-1.8l5.1,5
	c-1.5,1.3-3.3,2.4-5.4,3.2c-2.1,0.8-4.3,1.2-6.5,1.2c-2.3,0-4.4-0.4-6.4-1.3c-2-0.8-3.7-2-5.2-3.5c-1.5-1.5-2.6-3.2-3.5-5.1
	c-0.9-1.9-1.3-4-1.3-6.2s0.4-4.3,1.3-6.2c0.9-1.9,2-3.6,3.5-5.1c1.5-1.5,3.2-2.6,5.1-3.5c1.9-0.8,4-1.3,6.2-1.3c3.5,0,6.5,1,9.1,3.1
	c2.6,2.1,4.5,4.8,5.6,8.2c-1.4,0.5-3.1,1.2-5,1.9c-1.9,0.7-3.9,1.5-5.9,2.3c-2.1,0.8-4.1,1.6-6.2,2.5c-2.1,0.8-4,1.6-5.7,2.3
	C156.3,270.7,157.5,271.9,158.9,272.8z M200.8,257.6c-1.3,0-2.6,0.2-3.9,0.5c-1.2,0.3-2.3,0.9-3.2,1.5c-0.9,0.7-1.5,1.6-2.1,2.6
	c-0.6,1-0.7,2.2-0.7,3.6V280h-7v-30h5.7c0.1,1,0.2,2.9,0.3,4c0.1,1.1,0.2,2.2,0.3,3.5c0.6-1.3,1.5-2.6,2.5-3.7
	c1.1-1.1,2.1-2,3.3-2.7c1.1-0.7,2.2-1.3,3.3-1.7c1.1-0.4,2-0.6,2.8-0.6L200.8,257.6z M255.2,271.6c-0.8,1.9-2.1,3.5-3.8,4.8
	c-1.7,1.3-3.8,2.4-6.4,3.1c-2.6,0.7-5.6,1.1-9,1.1c-2.1,0-4-0.1-5.8-0.4c-1.7-0.3-3.3-0.6-4.6-1.1c-1.4-0.4-2.6-0.9-3.6-1.4
	c-1.1-0.5-2-1-2.7-1.5l3.8-7.7c2,1.1,4.2,2,6.5,2.6c2.3,0.6,4.3,0.9,6.1,0.9c0.9,0,2-0.1,3.3-0.3c1.4-0.2,2.7-0.6,4-1.1
	s2.4-1.2,3.3-2.2c0.9-0.9,1.4-2.1,1.4-3.5c0-1.7-0.6-3.1-1.9-4.1c-1.3-1.1-2.9-2-4.8-2.9c-1.9-0.8-4-1.7-6.2-2.5
	c-2.2-0.8-4.3-1.8-6.2-2.9c-1.9-1.1-3.5-2.5-4.8-4.2c-1.3-1.7-1.9-3.8-1.9-6.3c0-1.8,0.4-3.6,1.1-5.4c0.7-1.8,1.8-3.3,3.3-4.7
	c1.5-1.4,3.3-2.5,5.5-3.4c2.2-0.9,4.8-1.3,7.7-1.3c1.9,0,3.7,0.2,5.4,0.5c1.8,0.3,3.3,0.7,4.7,1c1.4,0.4,2.5,0.8,3.5,1.1
	c0.9,0.4,1.5,0.6,1.7,0.6l-3.2,7.2c-2-0.7-4-1.3-6-1.7c-2-0.4-3.8-0.6-5.5-0.6c-2.9,0-5.2,0.6-6.9,1.7c-1.7,1.2-2.6,2.6-2.6,4.4
	c0,1.5,0.6,2.8,1.9,3.7c1.3,1,2.9,1.8,4.8,2.6c1.9,0.8,4,1.5,6.2,2.3s4.3,1.8,6.2,3.1c1.9,1.2,3.5,2.8,4.8,4.8
	c1.3,1.9,1.9,4.4,1.9,7.3C256.5,267.7,256,269.7,255.2,271.6z M280,256h-8v24h-7v-24h-5v-6h5v-14h7v14h8V256z M301.8,257.6
	c-1.3,0-2.6,0.2-3.9,0.5c-1.2,0.3-2.3,0.9-3.2,1.5c-0.9,0.7-1.5,1.6-2.1,2.6c-0.6,1-0.7,2.2-0.7,3.6V280h-7v-30h5.7
	c0.1,1,0.2,2.9,0.3,4c0.1,1.1,0.2,2.2,0.3,3.5c0.6-1.3,1.5-2.6,2.5-3.7c1.1-1.1,2.1-2,3.3-2.7c1.1-0.7,2.2-1.3,3.3-1.7
	c1.1-0.4,2-0.6,2.8-0.6L301.8,257.6z M316.8,272.8c1.4,0.9,3.1,1.4,4.9,1.4c1.2,0,2.5-0.2,3.8-0.7c1.3-0.5,2.3-1.1,3.1-1.8l5.1,5
	c-1.5,1.3-3.3,2.4-5.4,3.2c-2.1,0.8-4.3,1.2-6.5,1.2c-2.3,0-4.4-0.4-6.4-1.3c-2-0.8-3.7-2-5.2-3.5c-1.5-1.5-2.6-3.2-3.5-5.1
	c-0.9-1.9-1.3-4-1.3-6.2s0.4-4.3,1.3-6.2c0.9-1.9,2-3.6,3.5-5.1s3.2-2.6,5.1-3.5s4-1.3,6.2-1.3c3.5,0,6.5,1,9.1,3.1
	c2.6,2.1,4.5,4.8,5.6,8.2c-1.4,0.5-3.1,1.2-5,1.9c-1.9,0.7-3.9,1.5-5.9,2.3c-2.1,0.8-4.1,1.6-6.2,2.5c-2.1,0.8-4,1.6-5.7,2.3
	C314.2,270.7,315.4,271.9,316.8,272.8z M338.1,135.6l-22.6,12.2c-2.8,0.9-4.8,1.9-7.6,1.9c-0.9,0-3.9-4.7-3.9-4.7c0,0.9,0,6.6,0,7.5
	c0,2.8,1,4.7,1,6.6c0.9,3.8,1,6.6,1,12.2c0,14.1-15,27.3-24.4,33.8c-2.8,1.9-5.6,2.8-8.4,2.8h-43.3c-2.8,0-5.6-0.9-8.5-3.7
	c-9.4-5.6-25.4-18.8-25.4-33.9c0-5.6,0-8.5,1-12.2c0-1.9,1-3.8,1-6.6c0-0.9,0-6.6,0-7.5c0,0-2.9,4.7-3.8,4.7c-2.8,0-5.7-0.9-7.5-1.9
	l-22.6-12.2c-3.8-2.8-6.6-7.5-6.6-12.2c0-18.8,4.7-28.2,8.5-32.9c-0.9-2.8-0.9-6.6-0.9-14.1c0-31,26.3-44.2,46.1-46.1
	c6.6-4.7,13.2-8.4,18.8-9.3c0.9,0,1.9,0,2.8,1h37.6c0.9,0,1.9,0,2.8,0c5.6,1,12.2,3.7,18.8,8.4c19.8,1.9,46.1,15,46.1,46.1
	c0,7.5-0.9,11.3-0.9,14.1c3.8,4.7,8.5,14.1,7.5,33.9C344.7,128.1,342.8,132.8,338.1,135.6z M371,280h-7v-18.8c0-1.5-0.6-2.8-1.6-3.9
	s-2.4-1.7-4.5-1.8c-1.4,0-2.7,0.3-3.8,0.8c-1.2,0.5-2.2,1.2-3,2.1s-1.7,1.9-2.2,3.1c-0.5,1.2-0.9,2.5-0.9,3.9V280h-6v-30h5.6
	c0.1,1,0.2,2.9,0.3,4c0.1,1.1,0.2,2.2,0.3,3.5c1.1-2.6,2.7-4.7,4.7-6.3c2-1.6,4.5-2.4,7.6-2.4c3.1,0,5.7,0.8,7.5,2.5
	c1.8,1.7,3,3.9,3,6.6V280z M410,278.5c0,2.6-0.4,4.9-1.2,6.9c-0.8,2-1.9,3.7-3.4,5.1c-1.5,1.4-3.2,2.4-5.3,3.1
	c-2,0.7-4.3,1.1-6.7,1.1c-1.9,0-3.5-0.2-4.9-0.6c-1.4-0.4-2.7-0.9-3.8-1.5c-1.1-0.6-2.2-1.3-3.1-2.1c-0.9-0.8-1.8-1.5-2.7-2.3
	l4.5-4.7c1.3,1.2,2.8,2.3,4.3,3.2c1.5,0.9,3.4,1.3,5.6,1.3c3,0,5.3-0.7,7.1-2.2c1.8-1.4,2.6-3.5,2.6-6.1c0-0.2,0-0.5,0-0.8
	c0-0.3,0-0.6,0.1-1c0-0.4,0.1-0.8,0.2-1.2c0.1-0.3,0.1-0.6,0.1-0.9c-0.4,0.5-0.9,1-1.5,1.6c-0.6,0.6-1.3,1.1-2.2,1.6
	c-0.8,0.5-1.8,0.9-2.9,1.2c-1.1,0.3-2.4,0.5-3.8,0.5c-2.3,0-4.4-0.4-6.3-1.2c-1.9-0.8-3.6-1.9-5-3.4c-1.4-1.4-2.5-3.1-3.2-5
	c-0.8-1.9-1.2-4-1.2-6.3c0-2.3,0.4-4.5,1.2-6.4c0.8-2,1.9-3.7,3.3-5.2c1.4-1.5,3.1-2.6,5-3.4c1.9-0.8,3.9-1.2,6.1-1.2
	c1.6,0,3.1,0.2,4.3,0.6c1.2,0.4,2.3,0.9,3.1,1.4c0.8,0.5,1.5,1,1.9,1.5c0.5,0.5,0.7,0.8,0.8,0.9c0-0.5,0-0.9,0.1-1.5
	c0.1-0.6,0.1-1.7,0.1-1.7h6.6V278.5z M436,256h-8v24h-7v-24h-5v-6h5v-14h7v14h8V256z M471,280h-7v-18.8c0-1.5-0.8-2.8-1.7-3.9
	c-1-1.1-2.5-1.7-4.5-1.8c-1.4,0-2.7,0.3-3.9,0.8c-1.2,0.5-2.2,1.2-3,2.1c-0.8,0.9-1.6,1.9-2,3.1c-0.5,1.2-0.8,2.5-0.8,3.9V280h-7
	v-56h7v32.9c1-2.4,2.6-4.4,4.6-5.9c1.9-1.5,4.4-2.3,7.5-2.3c3.2,0,5.9,0.8,7.8,2.5c1.9,1.7,2.2,3.9,3.2,6.7V280z"/>
<path id="XMLID_71_" class="st0" d="M324.3,259.9c1.2-0.5,2.4-0.9,3.4-1.3c-0.6-1.1-1.4-1.8-2.6-2.3c-1.2-0.5-2.3-0.8-3.4-0.8
	c-1.3,0-2.5,0.3-3.7,0.8c-1.2,0.5-2.1,1.2-3,2s-1.7,1.8-2.1,2.9c-0.5,1.1-0.9,2.2-0.9,3.3v0.3c2-0.5,2.7-1,4.1-1.5s2.8-1.1,4.2-1.7
	C321.6,261,323,260.4,324.3,259.9z"/>
<path id="XMLID_72_" class="st0" d="M126.6,255.5c-1.4,0-2.7,0.2-3.8,0.7c-1.2,0.5-2.1,1.1-3,1.9c-0.8,0.8-1.5,1.8-2,3
	c-0.5,1.1-0.7,2.3-0.7,3.6c0,1.3,0.2,2.6,0.7,3.7c0.5,1.2,1.1,2.1,2,3c0.8,0.8,1.8,1.5,3,2c1.2,0.5,2.4,0.7,3.8,0.7
	c1.4,0,2.6-0.2,3.7-0.7c1.1-0.5,2-1.2,2.8-2c0.7-0.9,1.3-1.9,1.7-3c0.4-1.1,0.6-2.3,0.6-3.6c0-2.7-0.8-4.9-2.3-6.7
	C131.5,256.4,129.4,255.5,126.6,255.5z"/>
</svg>
