<?xml version="1.0" encoding="utf-8"?>
<!-- Generator: Adobe Illustrator 19.0.0, SVG Export Plug-In . SVG Version: 6.00 Build 0)  -->
<svg version="1.1" id="Capa_1" xmlns="http://www.w3.org/2000/svg" xmlns:xlink="http://www.w3.org/1999/xlink" x="0px" y="0px"
	 viewBox="0 0 500 300" style="enable-background:new 0 0 500 300;" xml:space="preserve">
<style type="text/css">
	.st0{fill:#E57D00;}
</style>
<path id="XMLID_47_" class="st0" d="M238.2,260c-1.2,0-2.4,0.3-3.6,0.8c-1.1,0.5-2.1,1.2-3,2c-0.8,0.8-1.5,1.8-2,2.9
	c-0.5,1.1-0.8,2.3-0.8,3.5c0,1.7,0.3,3.1,0.9,4.3c0.6,1.2,1.4,2.2,2.4,2.9c1,0.7,2.2,1.3,3.5,1.7c1.3,0.4,2.6,0.5,3.9,0.5
	c0.9,0,1.8-0.1,2.8-0.3s1.8-0.5,2.7-0.9c0.9-0.4,1.7-0.8,2.4-1.4c0.7-0.5,1.3-1.1,1.8-1.8c-1.8-2.2-3.6-4.5-5.6-7
	C241.7,264.8,239.9,262.4,238.2,260z"/>
<path id="XMLID_48_" class="st0" d="M227.3,108.6c0-3.3-2.2-6.3-5.2-7.1c-0.6-0.2-1.3-0.5-1.9-0.5h0c-2.5,0-4.7,1.4-6,3.4
	c-0.7,1.1-1.2,2.7-1.2,4.2c0,3.9,3.2,7.4,7.1,7.4c0,0,0,0,0.1,0C224.1,116,227.3,112.6,227.3,108.6z"/>
<path id="XMLID_49_" class="st0" d="M241.2,91.9c3.8,0,6.8-2.9,7.2-6.5c0-0.2,0-0.4,0-0.7c0-0.8-0.1-1.5-0.3-2.2c-1-2.9-3.7-5-6.8-5
	c-0.3,0-0.6,0-0.9,0.1c-3.5,0.5-6.3,3.5-6.3,7.1c0,2,0.8,3.9,2.2,5.2C237.5,91.2,239.3,91.9,241.2,91.9z"/>
<path id="XMLID_50_" class="st0" d="M273.9,123.1c0,3.1,1.9,5.7,4.6,6.7c0.8,0.3,1.6,0.4,2.6,0.4c0.2,0,0.5,0,0.7,0
	c2.1-0.2,4-1.4,5.2-3c0.8-1.2,1.3-2.5,1.3-4.1c0-4-3.2-7.1-7.2-7.1c-0.1,0-0.2,0-0.3,0C276.9,116,273.9,119.2,273.9,123.1z"/>
<path id="XMLID_51_" class="st0" d="M229.1,131.1c-2.2,0-4.2,1-5.5,2.6c-0.9,1.1-1.6,2.5-1.6,4v0v0c0,0.2,0,0.3,0,0.5
	c0,0.1,0,0.2,0,0.3c0,3.9,3.3,6.9,7.1,6.9c2.2,0,4.2-1,5.5-2.6c1-1.2,1.6-2.8,1.6-4.5C236.3,134.4,233.1,131.1,229.1,131.1z"/>
<path id="XMLID_52_" class="st0" d="M265.3,94.2c0,4,3.2,7.2,7.2,7.2c1.6,0,3.1-0.5,4.2-1.4c0.8-0.6,1.5-1.4,2-2.2
	c0.6-1,0.9-2.2,0.9-3.5c0-1-0.2-2-0.6-2.9c-1.1-2.6-3.6-4.3-6.6-4.3c-2.7,0-5,1.5-6.3,3.6C265.7,91.7,265.3,92.9,265.3,94.2z"/>
<path id="XMLID_53_" class="st0" d="M259.2,138.1c-4,0-7.2,3.2-7.2,7.2c0,0.9,0.2,1.8,0.5,2.6c1,2.7,3.7,4.6,6.7,4.6
	c3.9,0,7.2-3.2,7.2-7.2c0-0.8-0.1-1.6-0.3-2.2C265.1,140.2,262.4,138.1,259.2,138.1z"/>
<path id="XMLID_54_" class="st0" d="M335.4,264.4c1.2-0.5,2.4-0.9,3.4-1.3c-0.6-1.1-1.4-1.8-2.6-2.3c-1.2-0.5-2.3-0.8-3.4-0.8
	c-1.3,0-2.5,0.3-3.7,0.8s-2.1,1.2-3,2c-0.8,0.8-1.2,1.8-1.7,2.9s-0.5,2.2-0.5,3.3v0.3c1-0.5,2.3-1,3.6-1.5c1.4-0.6,2.6-1.1,4-1.7
	S334.2,264.9,335.4,264.4z"/>
<path id="XMLID_57_" class="st0" d="M457.5,0h-415C19,0,0,19,0,42.5v215C0,281,19,300,42.5,300h415c23.5,0,42.5-19,42.5-42.5v-215
	C500,19,481,0,457.5,0z M342,114.1c-0.1,7.9-0.1,14.8-0.1,21.8c0,6.6-0.6,13.3-0.1,19.9c0.4,5.2-1.8,7.8-6.1,10
	c-8,4-15.8,8.3-23.3,13.1c-4.2,2.7-7.7,3.2-11.7-0.1c-2-1.6-4.4-2.8-7.4-4.7c9.7-5.5,18.3-10.9,27.5-15.3c6-2.9,8.5-6.8,7.6-13.3
	c-0.3-2.4-0.2-4.8-0.3-8.3c-3.5,1.9-6.1,3.4-8.6,4.8c-12.6,7.1-25.2,14.1-37.6,21.2c-2.6,1.5-4.5,1.7-7.2,0
	c-3.3-2.1-6.7-4.2-10.2-6.2c-1.6,0.7-3.4,1.1-5.2,1.1c-7.2,0-13-5.8-13-13s5.8-13,13-13s13,5.8,13,13c0,0.5,0,0.9-0.1,1.3
	c5.2,3,9.9,1.8,15.6-1.7c15.7-9.6,31.9-18.2,48-27.2C337.5,116.7,339.3,115.7,342,114.1z M293.2,97.6c-0.6-18.4-0.2-36.8-0.2-55.2
	c0-2,0-4.1,0-7.3c7,3.9,12.9,7.3,18.8,10.8c5.8,3.3,11.3,7,17.3,9.8c4.8,2.2,5.9,5.4,5.7,10.3c-0.4,8.9-0.4,17.8,0,26.7
	c0.3,5-1,8.3-5.9,10.2c-2.4,0.9-4.6,2.4-7.7,4.1c0-11.1-0.5-21.3,0.2-31.4c0.4-6.7-1.9-10.7-8-13.1c-2.2-0.9-4.5-2.2-7.5-3.8v9.9
	c0,14.4,0.1,28.8,0.2,43.2c0,3-0.6,4.8-3.4,6.3c-3,1.6-5.9,3.2-8.9,5c0,7.1-5.8,13-13,13c-7.2,0-13-5.8-13-13s5.8-13,13-13
	c2.3,0,4.6,0.6,6.5,1.7C292.3,108.7,293.4,104.1,293.2,97.6z M224.8,26.2c5.9-3,12-5.6,17.7-9.1c4.5-2.8,7.7-2,11.7,0.8
	c7.2,5.2,14.7,10.1,22.4,14.6c4.3,2.5,6.4,5.4,5.3,10.4c-0.5,2.5-0.5,5.1-0.8,8.7c-9.3-6.1-18.1-11.3-26.2-17.4
	c-5.4-4-9.9-4.4-15.3-0.6c-1.9,1.4-4.2,2.3-7.2,4.1c3.3,2.2,5.8,3.8,8.3,5.4c12.1,7.9,24.1,15.8,36.2,23.6c2.5,1.6,3.6,3.2,3.3,6.3
	c-0.3,3.4-0.5,6.7-0.7,10.2c3.6,2.3,6,6.4,6,10.9c0,7.2-5.8,13-13,13s-13-5.8-13-13c0-5,2.9-9.4,7-11.5c0.1-5.8-3.1-9.3-8.7-12.7
	c-15.7-9.5-30.9-20-46.3-30c-1.7-1.1-3.4-2.2-6.1-4C212.5,32.5,218.7,29.3,224.8,26.2z M120.8,276.1c-0.8,1.9-2.1,3.5-3.8,4.8
	c-1.7,1.3-3.8,2.4-6.4,3.1c-2.6,0.7-5.6,1.1-9,1.1c-2.1,0-4-0.1-5.8-0.4c-1.7-0.3-3.3-0.6-4.6-1.1c-1.4-0.4-2.6-0.9-3.6-1.4
	c-1.1-0.5-2-1-2.7-1.5l3.8-7.7c2,1.1,4.2,2,6.5,2.6c2.3,0.6,4.3,0.9,6.1,0.9c0.9,0,2-0.1,3.3-0.3c1.4-0.2,2.7-0.6,4-1.1
	s2.4-1.2,3.3-2.2c0.9-0.9,1.4-2.1,1.4-3.5c0-1.7-0.6-3.1-1.9-4.1c-1.3-1.1-2.9-2-4.8-2.9c-1.9-0.8-4-1.7-6.2-2.5
	c-2.2-0.8-4.3-1.8-6.2-2.9c-1.9-1.1-3.5-2.5-4.8-4.2c-1.3-1.7-1.9-3.8-1.9-6.3c0-1.8,0.4-3.6,1.1-5.4c0.7-1.8,1.8-3.3,3.3-4.7
	c1.5-1.4,3.3-2.5,5.5-3.4c2.2-0.9,4.8-1.3,7.7-1.3c1.9,0,3.7,0.2,5.4,0.5c1.8,0.3,3.3,0.7,4.7,1c1.4,0.4,2.5,0.8,3.5,1.1
	c0.9,0.4,1.5,0.6,1.7,0.6l-3.2,7.2c-2-0.7-4-1.3-6-1.7c-2-0.4-3.8-0.6-5.5-0.6c-2.9,0-5.2,0.6-6.9,1.7c-1.7,1.2-2.6,2.6-2.6,4.4
	c0,1.5,0.6,2.8,1.9,3.7c1.3,1,2.9,1.8,4.8,2.6c1.9,0.8,4,1.5,6.2,2.3s4.3,1.8,6.2,3.1c1.9,1.2,3.5,2.8,4.8,4.8
	c1.3,1.9,1.9,4.4,1.9,7.3C122.1,272.1,121.7,274.2,120.8,276.1z M148.7,285c-1.6-3-3.2-4.5-4.8-6.6c-1.6-2.1-3.3-4.4-4.9-6.5
	l-4.1,3.5v9.7h-7v-57h7v39.3c3-2.4,5.2-4.8,7.7-7c2.4-2.2,5-4.6,7.6-7l4.1,4c-1.8,1.7-3.6,3.3-5.2,4.9c-1.7,1.6-3.4,3.3-5.2,4.9
	c2.2,2.9,4.3,6,6.3,8.9c2.1,2.9,4.2,5.9,6.3,8.9H148.7z M158.8,94.2c0.3-6.6,1-13.2,0.8-19.9c-0.2-5.2,2-7.7,6.5-9.8
	c8.1-3.8,16-7.8,23.7-12.3c4.3-2.6,7.8-2.9,11.7,0.5c1.9,1.7,4.3,2.9,7.2,4.9c-9.9,5.1-18.7,10.2-28,14.3c-6.1,2.7-8.7,6.5-8,13
	c0.2,2.4,0,4.8,0,8.3c3.6-1.9,6.2-3.2,8.8-4.6c12.8-6.6,25.6-13.2,38.3-20c2.6-1.4,4.5-1.6,7.2,0.2c2.4,1.6,4.8,3.2,7.3,4.8
	c2-1.3,4.4-2,6.9-2c7.2,0,12.9,5.9,12.9,13s-5.8,13-13,13c-6.9,0-12.6-5.5-13-12.4c-4.8-2.7-9.4-1.5-15,1.6
	c-16,9-32.5,17.1-48.8,25.6c-1.8,1-3.6,1.9-6.4,3.3C158.3,108.1,158.5,101.2,158.8,94.2z M168,285h-7v-31h7V285z M167.7,245.3
	c-0.9,0.8-1.9,1.2-2.9,1.2c-1.1,0-2-0.4-3-1.2c-0.9-0.8-1.4-1.8-1.4-3.1c0-1.2,0.5-2.3,1.4-3.1c0.9-0.8,1.9-1.2,3-1.2
	c1.1,0,2,0.4,2.9,1.2c0.9,0.8,1.3,1.8,1.3,3.1C169,243.4,168.6,244.5,167.7,245.3z M184,285h-7v-57h7V285z M199,285h-7v-57h7V285z
	 M206.2,134.1c0,18.4-1,36.8-1.6,55.1c0,2-0.1,4.1-0.2,7.2c-6.7-4.2-12.6-7.8-18.5-11.4c-5.6-3.5-11.1-7.4-16.9-10.4
	c-4.7-2.4-5.8-5.5-5.4-10.5c0.7-8.9,1-17.8,0.9-26.7c-0.1-5,1.3-8.3,6.2-10c2.4-0.9,4.6-2.3,7.8-3.9c-0.4,11.1-0.3,21.3-1.2,31.4
	c-0.6,6.6,1.4,10.8,7.4,13.4c2.2,1,4.2,2.3,7.2,4.1c0.1-4,0.2-7,0.3-9.9c0.5-14.4,1-28.8,1.4-43.2c0.1-3,0.8-4.7,3.7-6.1
	c3.3-1.6,6.6-3.3,9.9-5.1c0.1-7.1,5.9-12.8,13-12.8c7.2,0,13,5.8,13,13s-5.8,13-13,13c-2.4,0-4.7-0.7-6.6-1.8
	C207.7,122.4,206.2,127.2,206.2,134.1z M257.9,285c0,0-0.5-0.7-1.3-1.6c-0.8-1-1.8-2.3-3.1-3.8c-1.5,1.8-3.5,3.2-6,4.3
	c-2.5,1.1-5.2,1.6-8.3,1.6c-2.5,0-4.8-0.4-6.9-1.2c-2.1-0.8-3.9-1.9-5.4-3.3c-1.5-1.4-2.7-3.1-3.6-5c-0.9-1.9-1.3-4-1.3-6.3
	c0-1.9,0.3-3.7,0.9-5.4c0.6-1.7,1.4-3.2,2.5-4.6c1.1-1.3,2.3-2.5,3.8-3.5c1.5-1,3.1-1.7,4.8-2.2c-0.6-0.9-1.1-1.7-1.6-2.5
	c-0.5-0.8-0.9-1.6-1.2-2.2c-0.8-1.6-1.5-3-2-4.4c-0.5-1.3-0.8-2.7-0.8-4.2c0-1.6,0.3-3.1,1-4.4c0.7-1.3,1.6-2.4,2.7-3.3
	c1.2-0.9,2.5-1.6,4-2.1c1.5-0.5,3.2-0.8,4.9-0.8c2.3-0.1,4.4,0.2,6.3,0.8c1.9,0.6,3.4,1.3,4.5,2.1c-0.8,1.2-1.5,2.1-1.9,2.7
	c-0.5,0.6-1.1,1.5-1.9,2.7c-0.4-0.3-1-0.6-1.6-0.9s-1.5-0.5-2.4-0.6c-1-0.1-1.9-0.2-2.9-0.1c-1,0.1-1.8,0.3-2.7,0.7
	c-0.8,0.4-1.5,0.9-2,1.6c-0.5,0.7-0.8,1.6-0.8,2.6c0,1.2,0.2,2.3,0.7,3.3c0.5,1,0.8,1.6,1,1.9l14.9,19.7l5.3-13.5h7.3l-7.8,19.9
	l8.9,12.1H257.9z M260.9,215.8c-4.4,2.9-7.7,2.3-11.8-0.4c-7.4-4.9-15-9.6-22.8-13.9c-4.4-2.4-6.5-5.2-5.7-10.3
	c0.4-2.5,0.3-5.2,0.5-8.7c9.5,5.8,18.5,10.7,26.8,16.5c5.5,3.8,10.1,4.1,15.3,0.1c1.9-1.4,4.1-2.5,7.1-4.3c-3.4-2.1-6-3.6-8.5-5.1
	c-12.3-7.5-24.6-15-37-22.4c-2.6-1.5-3.7-3-3.5-6.2c0.2-3.9,0.3-7.9,0.4-12c-3.4-2.3-5.6-6.2-5.6-10.7c0-7.2,5.8-13,13-13
	s13,5.8,13,13c0,5.1-3,9.6-7.4,11.7c-0.3,6.3,3.1,9.9,9.1,13.3c16,9,31.5,18.9,47.2,28.5c1.7,1,3.5,2.1,6.2,3.8
	c-6.9,3.8-13,7.2-19,10.5C272.5,209.3,266.4,212.1,260.9,215.8z M306,285h-9v-44h-12v-9h34v9h-13V285z M327.9,277.3
	c1.4,0.9,3.1,1.4,4.9,1.4c1.2,0,2.5-0.2,3.8-0.7c1.3-0.5,2.3-1.1,3.1-1.8l5.1,5c-1.5,1.3-3.3,2.4-5.4,3.2c-2.1,0.8-4.3,1.2-6.5,1.2
	c-2.3,0-4.4-0.4-6.4-1.3c-2-0.8-3.7-2-5.2-3.5c-1.5-1.5-2.6-3.2-3.5-5.1c-0.9-1.9-1.3-4-1.3-6.2s0.4-4.3,1.3-6.2
	c0.9-1.9,2-3.6,3.5-5.1c1.5-1.5,3.2-2.6,5.1-3.5s4-1.3,6.2-1.3c3.5,0,6.5,1,9.1,3.1c2.6,2.1,4.5,4.8,5.6,8.2c-1.4,0.5-3.1,1.2-5,1.9
	c-1.9,0.7-3.9,1.5-5.9,2.3c-2.1,0.8-4.1,1.6-6.2,2.5c-2.1,0.8-4,1.6-5.7,2.3C325.4,275.1,326.5,276.3,327.9,277.3z M358.4,272.9
	c0.5,1.1,1.1,2.1,1.9,3s1.8,1.5,3,2c1.2,0.5,2.4,0.7,3.8,0.7c2.4,0,4.4-0.7,6-2c0.7,0.9,1.4,1.8,2.1,2.6c0.7,0.8,1.4,1.7,2.1,2.6
	c-1.4,1.1-3,2-4.7,2.6c-1.7,0.6-3.6,1-5.5,1c-2.3,0-4.4-0.4-6.4-1.3c-2-0.8-3.7-2-5.2-3.5c-1.5-1.5-2.6-3.2-3.5-5.1
	c-0.9-2-1.3-4.1-1.3-6.3c0-2.2,0.4-4.3,1.3-6.2c0.9-1.9,2-3.6,3.5-5.1c1.5-1.5,3.2-2.6,5.2-3.5c2-0.8,4.1-1.3,6.4-1.3
	c2,0,3.9,0.3,5.7,1c1.8,0.6,3.3,1.5,4.8,2.6l-4.4,5.1c-1.7-1.3-3.7-1.9-6-1.9c-1.4,0-2.7,0.2-3.8,0.7c-1.2,0.5-2.1,1.1-3,1.9
	c-0.8,0.8-1.5,1.8-1.9,2.9c-0.5,1.1-0.7,2.4-0.7,3.7C357.7,270.6,357.9,271.8,358.4,272.9z M413,285h-7v-19.3c0-1.5-0.7-2.8-1.7-3.9
	c-1-1.1-2.5-1.7-4.5-1.8c-1.4,0-2.7,0.3-3.9,0.8c-1.2,0.5-2.2,1.2-3,2.1c-0.8,0.9-1.6,1.9-2.1,3.1c-0.5,1.2-0.8,2.5-0.8,3.9V285h-7
	v-57h7v33.4c1-2.4,2.7-4.4,4.6-5.9c1.9-1.5,4.4-2.3,7.5-2.3c3.2,0,5.9,0.8,7.8,2.5c1.9,1.7,3.2,3.9,3.2,6.7V285z"/>
</svg>
