<?xml version="1.0" encoding="utf-8"?>
<!-- Generator: Adobe Illustrator 19.0.0, SVG Export Plug-In . SVG Version: 6.00 Build 0)  -->
<svg version="1.1" id="Capa_1" xmlns="http://www.w3.org/2000/svg" xmlns:xlink="http://www.w3.org/1999/xlink" x="0px" y="0px"
	 viewBox="0 0 400 230" style="enable-background:new 0 0 400 230;" xml:space="preserve">
<path id="XMLID_99_" d="M92.5,123.1c3.9,0.4,7.6,1,11,1.8L94,182.4l93.9-69.1c3.8-3.1,4.9-8.4,1.7-11.8l-68.2-84.2l-9.1,54.1
	C61.2,72.5,15.6,109,7.4,158.3c-0.2,2.2-0.7,4.6-1,6.8C24.1,137.5,57.5,119.8,92.5,123.1z"/>
<path id="XMLID_1_" d="M302.4,113.7c-3.9-0.4-7.6-1-11-1.9l9.9-57.5L207,122.7c-3.9,3.1-4.9,8.3-1.8,11.8l67.6,84.7l9.5-54
	c51.1-0.7,97-36.8,105.5-86.1c0.3-2.2,0.8-4.6,1-6.8C370.9,99.8,337.4,117.2,302.4,113.7z"/>
</svg>
